<svg width="1103" height="679" viewBox="0 0 1103 679" fill="none" xmlns="http://www.w3.org/2000/svg">
<g clip-path="url(#clip0)">
<path d="M291.093 256.732H398.585" stroke="#3F3D56" stroke-width="1.46213" stroke-miterlimit="10"/>
<path d="M163.035 372.983C168.849 358.077 169.691 344.544 164.916 342.755C160.141 340.967 151.556 351.6 145.742 366.506C139.928 381.411 139.086 394.945 143.862 396.733C148.637 398.522 157.221 387.888 163.035 372.983Z" fill="#2F2E41"/>
<path d="M829.582 442.537C841.276 527.819 825.352 613.194 744.358 646.439C663.364 679.684 570.202 642.294 536.276 562.927C502.35 483.56 582.397 436.072 621.5 359.026C700.907 202.568 793.267 177.696 829.582 442.537Z" fill="#F48E41" fill-opacity="0.8"/>
<path d="M683.77 668.028C753.855 668.028 810.67 660.454 810.67 651.111C810.67 641.768 753.855 634.194 683.77 634.194C613.684 634.194 556.869 641.768 556.869 651.111C556.869 660.454 613.684 668.028 683.77 668.028Z" fill="#3F3D56"/>
<path d="M600.753 608.056L605.527 624.977L636.465 616.597L631.691 599.676L600.753 608.056Z" fill="#2F2E41"/>
<path d="M602.886 627.969C605.866 627.162 606.501 620.194 604.304 612.407C602.108 604.619 597.911 598.96 594.93 599.768C591.95 600.575 591.315 607.542 593.512 615.33C595.709 623.118 599.906 628.776 602.886 627.969Z" fill="#2F2E41"/>
<path d="M698.405 549.86C700.592 534.047 698.259 520.683 693.193 520.01C688.127 519.337 682.247 531.611 680.06 547.423C677.873 563.236 680.206 576.6 685.272 577.273C690.338 577.946 696.218 565.673 698.405 549.86Z" fill="#2F2E41"/>
<path d="M683.46 660.52C716.029 660.52 742.432 634.648 742.432 602.733C742.432 570.819 716.029 544.947 683.46 544.947C650.891 544.947 624.489 570.819 624.489 602.733C624.489 634.648 650.891 660.52 683.46 660.52Z" fill="#2F2E41"/>
<path d="M600.753 597.815L605.527 614.736L636.465 606.356L631.691 589.435L600.753 597.815Z" fill="#2F2E41"/>
<path d="M602.886 617.728C605.866 616.921 606.501 609.954 604.304 602.166C602.108 594.378 597.911 588.72 594.93 589.527C591.95 590.334 591.315 597.302 593.512 605.089C595.709 612.877 599.906 618.536 602.886 617.728Z" fill="#2F2E41"/>
<path d="M698.945 589.379C710.076 589.379 719.1 580.537 719.1 569.629C719.1 558.722 710.076 549.88 698.945 549.88C687.814 549.88 678.79 558.722 678.79 569.629C678.79 580.537 687.814 589.379 698.945 589.379Z" fill="white"/>
<path d="M705.39 567.488C709.101 567.488 712.109 564.541 712.109 560.905C712.109 557.269 709.101 554.322 705.39 554.322C701.68 554.322 698.672 557.269 698.672 560.905C698.672 564.541 701.68 567.488 705.39 567.488Z" fill="#3F3D56"/>
<path d="M751.56 642.444C773.383 641.374 790.097 621.372 788.891 597.768C787.686 574.165 769.018 555.898 747.195 556.968C725.372 558.038 721.948 574.825 723.153 598.429C724.359 622.032 729.738 643.514 751.56 642.444Z" fill="#6EA6A4"/>
<path d="M659.358 578.283C655.807 578.564 652.287 577.451 649.573 575.189C646.859 572.927 645.173 569.702 644.886 566.222C644.598 562.742 645.733 559.292 648.041 556.632C650.348 553.972 653.639 552.319 657.191 552.036C664.587 551.449 666.604 557.204 667.203 564.452C667.802 571.7 666.755 577.697 659.358 578.283Z" fill="white"/>
<path d="M36.9238 334.081H367.233L418.443 358.528L500.038 397.481L553.386 299.601H704.353" stroke="#3F3D56" stroke-width="1.46213" stroke-miterlimit="10"/>
<path d="M166.323 354.332C171.965 354.332 176.538 349.85 176.538 344.322C176.538 338.793 171.965 334.311 166.323 334.311C160.681 334.311 156.107 338.793 156.107 344.322C156.107 349.85 160.681 354.332 166.323 354.332Z" fill="#6EA6A4"/>
<path d="M261.67 344.092C267.312 344.092 271.886 339.61 271.886 334.081C271.886 328.553 267.312 324.071 261.67 324.071C256.028 324.071 251.454 328.553 251.454 334.081C251.454 339.61 256.028 344.092 261.67 344.092Z" fill="#6EA6A4"/>
<path d="M418.312 368.562C423.954 368.562 428.527 364.08 428.527 358.551C428.527 353.023 423.954 348.541 418.312 348.541C412.67 348.541 408.096 353.023 408.096 358.551C408.096 364.08 412.67 368.562 418.312 368.562Z" fill="#6EA6A4"/>
<path d="M638.518 309.611C644.16 309.611 648.734 305.129 648.734 299.601C648.734 294.072 644.16 289.59 638.518 289.59C632.876 289.59 628.302 294.072 628.302 299.601C628.302 305.129 632.876 309.611 638.518 309.611Z" fill="#6EA6A4"/>
<path d="M531.82 348.541C537.462 348.541 542.036 344.059 542.036 338.53C542.036 333.002 537.462 328.52 531.82 328.52C526.178 328.52 521.604 333.002 521.604 338.53C521.604 344.059 526.178 348.541 531.82 348.541Z" fill="#6EA6A4"/>
<path d="M319.174 506.103C325.257 506.103 330.189 501.271 330.189 495.31C330.189 489.349 325.257 484.516 319.174 484.516C313.091 484.516 308.159 489.349 308.159 495.31C308.159 501.271 313.091 506.103 319.174 506.103Z" stroke="#3F3D56" stroke-width="1.46213" stroke-miterlimit="10"/>
<path d="M126.9 679C196.986 679 253.801 671.426 253.801 662.083C253.801 652.74 196.986 645.166 126.9 645.166C56.8153 645.166 0 652.74 0 662.083C0 671.426 56.8153 679 126.9 679Z" fill="#3F3D56"/>
<path d="M120.036 637.213C152.605 637.213 179.008 611.341 179.008 579.426C179.008 547.512 152.605 521.64 120.036 521.64C87.4671 521.64 61.0647 547.512 61.0647 579.426C61.0647 611.341 87.4671 637.213 120.036 637.213Z" fill="#2F2E41"/>
<path d="M111.079 624.778H93.1633V656.231H111.079V624.778Z" fill="#2F2E41"/>
<path d="M146.91 624.778H128.994V656.231H146.91V624.778Z" fill="#2F2E41"/>
<path d="M108.093 662.083C116.338 662.083 123.022 659.627 123.022 656.597C123.022 653.567 116.338 651.111 108.093 651.111C99.8475 651.111 93.1633 653.567 93.1633 656.597C93.1633 659.627 99.8475 662.083 108.093 662.083Z" fill="#2F2E41"/>
<path d="M143.924 661.352C152.169 661.352 158.853 658.895 158.853 655.865C158.853 652.836 152.169 650.379 143.924 650.379C135.678 650.379 128.994 652.836 128.994 655.865C128.994 658.895 135.678 661.352 143.924 661.352Z" fill="#2F2E41"/>
<path d="M121.53 584.547C132.661 584.547 141.684 575.704 141.684 564.797C141.684 553.889 132.661 545.047 121.53 545.047C110.398 545.047 101.375 553.889 101.375 564.797C101.375 575.704 110.398 584.547 121.53 584.547Z" fill="white"/>
<path d="M121.53 571.38C125.24 571.38 128.248 568.433 128.248 564.797C128.248 561.161 125.24 558.214 121.53 558.214C117.819 558.214 114.811 561.161 114.811 564.797C114.811 568.433 117.819 571.38 121.53 571.38Z" fill="#3F3D56"/>
<path d="M62.832 525.687C58.0704 504.79 73.2915 483.675 96.8294 478.525C120.367 473.375 143.309 486.139 148.07 507.036C152.832 527.932 137.233 535.639 113.695 540.79C90.1568 545.94 67.5937 546.583 62.832 525.687Z" fill="#6EA6A4"/>
<path d="M99.8813 471.168C132.45 471.168 158.853 445.296 158.853 413.381C158.853 381.467 132.45 355.595 99.8813 355.595C67.3123 355.595 40.9099 381.467 40.9099 413.381C40.9099 445.296 67.3123 471.168 99.8813 471.168Z" fill="#2F2E41"/>
<path d="M90.9237 458.733H73.0083V490.186H90.9237V458.733Z" fill="#2F2E41"/>
<path d="M126.755 458.733H108.839V490.186H126.755V458.733Z" fill="#2F2E41"/>
<path d="M87.9378 496.038C96.1831 496.038 102.867 493.582 102.867 490.552C102.867 487.522 96.1831 485.066 87.9378 485.066C79.6925 485.066 73.0083 487.522 73.0083 490.552C73.0083 493.582 79.6925 496.038 87.9378 496.038Z" fill="#2F2E41"/>
<path d="M123.769 495.307C132.014 495.307 138.698 492.85 138.698 489.821C138.698 486.791 132.014 484.334 123.769 484.334C115.524 484.334 108.839 486.791 108.839 489.821C108.839 492.85 115.524 495.307 123.769 495.307Z" fill="#2F2E41"/>
<path d="M101.375 418.502C112.506 418.502 121.529 409.659 121.529 398.752C121.529 387.844 112.506 379.002 101.375 379.002C90.2433 379.002 81.2197 387.844 81.2197 398.752C81.2197 409.659 90.2433 418.502 101.375 418.502Z" fill="white"/>
<path d="M101.375 405.335C105.085 405.335 108.093 402.388 108.093 398.752C108.093 395.116 105.085 392.169 101.375 392.169C97.6641 392.169 94.6562 395.116 94.6562 398.752C94.6562 402.388 97.6641 405.335 101.375 405.335Z" fill="#3F3D56"/>
<path d="M42.6772 359.642C37.9156 338.745 53.1367 317.63 76.6746 312.48C100.213 307.33 123.154 320.095 127.916 340.991C132.677 361.888 117.078 369.595 93.5399 374.745C70.002 379.895 47.4389 380.538 42.6772 359.642Z" fill="#6EA6A4"/>
<path d="M60.1015 398.95C62.2923 394.423 52.1405 385.211 37.427 378.373C22.7135 371.534 9.00994 369.66 6.81921 374.186C4.62848 378.713 14.7802 387.925 29.4937 394.763C44.2072 401.602 57.9108 403.476 60.1015 398.95Z" fill="#2F2E41"/>
<path d="M70.915 434.228C70.915 439.884 85.7763 451.052 102.267 451.052C118.758 451.052 134.219 435.129 134.219 429.474C134.219 423.818 118.758 430.571 102.267 430.571C85.7763 430.571 70.915 428.573 70.915 434.228Z" fill="white"/>
<path d="M717.812 483.072H623.66V530.004H717.812V483.072Z" fill="#6EA6A4"/>
<path d="M710.443 490.693H616.292V537.625H710.443V490.693Z" stroke="#3F3D56" stroke-width="1.46213" stroke-miterlimit="10"/>
<path d="M196.027 215.564H169.154V241.897H196.027V215.564Z" fill="#F48E41" fill-opacity="0.8"/>
<path d="M189.308 206.786H162.435V233.119H189.308V206.786Z" stroke="#3F3D56" stroke-width="1.46213" stroke-miterlimit="10"/>
<path d="M588.116 266.379C555.547 266.379 529.144 240.507 529.144 208.593C529.144 176.678 555.547 150.806 588.116 150.806C620.685 150.806 647.087 176.678 647.087 208.593C647.087 240.507 620.685 266.379 588.116 266.379Z" fill="#2F2E41"/>
<path d="M565.341 282.602L547.712 279.475L553.43 248.525L571.059 251.652L565.341 282.602Z" fill="#2F2E41"/>
<path d="M600.597 288.86L582.968 285.733L588.686 254.783L606.315 257.91L600.597 288.86Z" fill="#2F2E41"/>
<path d="M591.238 295.373C584.946 290.152 581.465 284.045 583.464 281.732C585.462 279.42 592.183 281.779 598.475 287.001C604.767 292.222 608.248 298.33 606.249 300.642C604.251 302.954 597.53 300.595 591.238 295.373Z" fill="#2F2E41"/>
<path d="M556.715 289.249C550.423 284.028 546.942 277.92 548.94 275.608C550.939 273.296 557.659 275.655 563.951 280.876C570.244 286.098 573.724 292.205 571.726 294.518C569.728 296.83 563.007 294.471 556.715 289.249Z" fill="#2F2E41"/>
<path d="M592.244 214.208C581.113 214.208 572.089 205.366 572.089 194.458C572.089 183.55 581.113 174.708 592.244 174.708C603.375 174.708 612.399 183.55 612.399 194.458C612.399 205.366 603.375 214.208 592.244 214.208Z" fill="white"/>
<path d="M600.527 193.962C596.817 193.962 593.809 191.014 593.809 187.378C593.809 183.743 596.817 180.795 600.527 180.795C604.238 180.795 607.245 183.743 607.245 187.378C607.245 191.014 604.238 193.962 600.527 193.962Z" fill="#3F3D56"/>
<path d="M541.595 145.727C540.708 124.334 559.525 106.213 583.622 105.254C607.72 104.295 627.974 120.86 628.861 142.254C629.748 163.647 612.997 168.508 588.899 169.467C564.801 170.426 542.482 167.121 541.595 145.727Z" fill="#6EA6A4"/>
<path d="M613.827 204.52C612.685 199.638 624.626 192.789 640.499 189.224C656.372 185.659 670.165 186.727 671.308 191.61C672.45 196.492 660.508 203.341 644.635 206.906C628.762 210.471 614.969 209.403 613.827 204.52Z" fill="#2F2E41"/>
<path d="M498.068 223.384C496.926 218.501 508.868 211.653 524.74 208.088C540.613 204.522 554.407 205.59 555.549 210.473C556.691 215.356 544.749 222.205 528.877 225.77C513.004 229.335 499.21 228.267 498.068 223.384Z" fill="#2F2E41"/>
<path d="M571.919 231.366C571.605 233.067 571.635 234.812 572.009 236.502C572.383 238.192 573.093 239.793 574.099 241.214C575.104 242.635 576.386 243.848 577.869 244.783C579.353 245.719 581.011 246.359 582.747 246.667C584.483 246.975 586.264 246.945 587.989 246.578C589.713 246.212 591.347 245.516 592.797 244.531C594.247 243.545 595.485 242.29 596.44 240.836C597.395 239.382 598.048 237.758 598.362 236.056C599.684 228.901 594.038 226.369 586.736 225.074C579.434 223.778 573.241 224.21 571.919 231.366Z" fill="white"/>
<path d="M732.519 142.416L664.59 193.619" stroke="#3F3D56" stroke-width="1.46213" stroke-miterlimit="10"/>
<path d="M764.618 169.481C736.584 169.481 713.858 147.211 713.858 119.74C713.858 92.2695 736.584 70 764.618 70C792.652 70 815.378 92.2695 815.378 119.74C815.378 147.211 792.652 169.481 764.618 169.481Z" fill="#F48E41" fill-opacity="0.8"/>
<path d="M676.271 563.591C678.458 547.778 676.124 534.414 671.059 533.741C665.993 533.068 660.113 545.341 657.926 561.154C655.738 576.967 658.072 590.331 663.138 591.004C668.204 591.677 674.084 579.403 676.271 563.591Z" fill="#2F2E41"/>
<path d="M51.3659 654.969C57.0079 654.969 61.5816 650.487 61.5816 644.958C61.5816 639.43 57.0079 634.948 51.3659 634.948C45.7239 634.948 41.1501 639.43 41.1501 644.958C41.1501 650.487 45.7239 654.969 51.3659 654.969Z" fill="#6EA6A4"/>
<path d="M218.421 633.236H191.548V659.569H218.421V633.236Z" fill="#F48E41" fill-opacity="0.8"/>
<path d="M191.703 660.821C197.345 660.821 201.919 656.339 201.919 650.81C201.919 645.282 197.345 640.8 191.703 640.8C186.061 640.8 181.487 645.282 181.487 650.81C181.487 656.339 186.061 660.821 191.703 660.821Z" fill="#6EA6A4"/>
<path d="M344.839 266.555C350.481 266.555 355.054 262.073 355.054 256.545C355.054 251.016 350.481 246.534 344.839 246.534C339.197 246.534 334.623 251.016 334.623 256.545C334.623 262.073 339.197 266.555 344.839 266.555Z" fill="#6EA6A4"/>
<path d="M543.224 571.637C545.918 571.637 548.103 569.497 548.103 566.856C548.103 564.216 545.918 562.076 543.224 562.076C540.53 562.076 538.346 564.216 538.346 566.856C538.346 569.497 540.53 571.637 543.224 571.637Z" fill="#F48E41" fill-opacity="0.8"/>
<path d="M567.125 646.201V591.771" stroke="#3F3D56" stroke-width="1.46213" stroke-miterlimit="10"/>
<path d="M567.126 599.469C571.464 599.469 574.981 596.022 574.981 591.771C574.981 587.52 571.464 584.074 567.126 584.074C562.787 584.074 559.271 587.52 559.271 591.771C559.271 596.022 562.787 599.469 567.126 599.469Z" fill="#3F3D56"/>
<path d="M567.125 625.318C567.125 625.318 566.003 601.668 542.999 604.417L567.125 625.318Z" fill="#3F3D56"/>
</g>
<g filter="url(#filter0_d)">
<path d="M1099 61.4266C1099 95.116 1069 122.427 1032 122.427C994.997 122.427 965 95.116 965 61.4266C965 27.7373 994.997 0.426636 1032 0.426636C1069 0.426636 1099 27.7373 1099 61.4266Z" fill="#F48E41" fill-opacity="0.8"/>
</g>
<defs>
<filter id="filter0_d" x="961" y="0.426636" width="142" height="130" filterUnits="userSpaceOnUse" color-interpolation-filters="sRGB">
<feFlood flood-opacity="0" result="BackgroundImageFix"/>
<feColorMatrix in="SourceAlpha" type="matrix" values="0 0 0 0 0 0 0 0 0 0 0 0 0 0 0 0 0 0 127 0"/>
<feOffset dy="4"/>
<feGaussianBlur stdDeviation="2"/>
<feColorMatrix type="matrix" values="0 0 0 0 0.956863 0 0 0 0 0.556863 0 0 0 0 0.254902 0 0 0 0.5 0"/>
<feBlend mode="normal" in2="BackgroundImageFix" result="effect1_dropShadow"/>
<feBlend mode="normal" in="SourceGraphic" in2="effect1_dropShadow" result="shape"/>
</filter>
<clipPath id="clip0">
<rect width="833" height="609" fill="white" transform="translate(0 70)"/>
</clipPath>
</defs>
</svg>
