<svg width="1364" height="789" viewBox="0 0 1364 789" fill="none" xmlns="http://www.w3.org/2000/svg">
<g filter="url(#filter0_i)">
<path d="M580.283 30.3193C524.838 12.8869 466.247 -1.67485 406.436 0.155765C318.493 2.83928 234.073 43.7473 192.731 103.814C157.655 154.707 153.327 214.358 138.217 270.837C119.622 340.411 83.9415 406.552 45.8456 471.217C25.3886 505.957 3.79922 541.446 0.440039 579.525C-4.21501 632.394 28.4584 685.076 79.7017 720.243C130.945 755.409 198.997 773.965 267.3 778.011C303.647 780.164 341.63 778.167 373.913 765.082C408.071 751.238 432.97 726.223 467.266 712.577C499.046 699.929 536.224 698.161 571.904 699.804C618.49 701.949 664.478 709.513 708.511 722.271C758.383 736.749 804.757 757.729 854.453 772.415C904.148 787.102 959.808 795.298 1010.66 783.045C1058.47 771.531 1096.21 743.573 1130.25 715.26C1185.89 669.05 1236.9 619.171 1282.75 566.117C1313.47 530.535 1342.05 492.997 1355.63 451.527C1381.59 372.239 1345.86 282.788 1266.61 228.639C1200.95 183.779 1112.83 164.308 1026.58 152.492C947.919 141.716 856.969 141.051 784.564 112.967C715.518 86.1531 652.688 53.098 580.283 30.3193Z" fill="#F48E41"/>
</g>
<path d="M909.227 607.63V641.826H918.555L916.749 605.117L909.227 607.63Z" fill="#AAABB0"/>
<path d="M769.107 600.731V634.927H778.444L776.638 598.218L769.107 600.731Z" fill="#AAABB0"/>
<path d="M932.1 550.535C932.1 547.067 929.406 544.256 926.082 544.256C922.758 544.256 920.063 547.067 920.063 550.535V598.849C920.063 602.316 922.758 605.127 926.082 605.127C929.406 605.127 932.1 602.316 932.1 598.849V550.535Z" fill="#AAABB0"/>
<path d="M777.685 537.037C777.685 533.57 774.991 530.759 771.667 530.759C768.343 530.759 765.648 533.57 765.648 537.037V598.839C765.648 602.307 768.343 605.117 771.667 605.117C774.991 605.117 777.685 602.307 777.685 598.839V537.037Z" fill="#AAABB0"/>
<path d="M947.46 179.995C947.46 179.995 959.498 174.658 961.304 179.995C963.11 185.332 964.013 231.453 964.013 231.453H952.571L947.46 179.995Z" fill="#AAABB0"/>
<path d="M815.621 179.995C815.621 179.995 803.575 174.658 801.769 179.995C799.963 185.332 799.06 231.453 799.06 231.453H810.501L815.621 179.995Z" fill="#AAABB0"/>
<path d="M817.418 134.184L815.612 172.465H823.739V133.243L817.418 134.184Z" fill="#AAABB0"/>
<path d="M810.501 231.453L812.912 176.23C812.912 176.23 812.009 163.994 840.598 167.759C869.187 171.524 952.879 179.054 952.879 179.054V231.453H810.501Z" fill="#33323D"/>
<path d="M924.885 522.297L920.37 606.689C920.37 606.689 854.143 644.97 773.775 608.572L780.999 519.784L924.885 522.297Z" fill="#33323D"/>
<path d="M861.972 190.028L863.471 244.621H956.789L951.371 172.465L861.972 190.028Z" fill="#444053"/>
<path d="M871.454 486.21H783.555V602.294H871.454V486.21Z" fill="#6EA6A4"/>
<path d="M839.099 533.592C839.099 533.592 851.741 523.239 853.845 526.373C855.949 529.507 846.332 543.005 842.413 541.433C838.494 539.861 839.099 533.592 839.099 533.592Z" fill="#FFB9B9"/>
<path d="M1189.97 228.309H612.976V529.507H1189.97V228.309Z" fill="#333333" fill-opacity="0.3"/>
<path d="M810.799 131.991C810.799 131.991 806.284 88.0634 810.799 82.736C815.314 77.4085 891.167 26.8825 961.304 86.1809C961.304 86.1809 967.923 86.5009 966.722 102.182C966.014 112.107 966.062 122.074 966.866 131.991C966.866 131.991 815.919 143.286 810.799 131.991Z" fill="#33323D"/>
<path opacity="0.1" d="M810.799 131.991C810.799 131.991 806.284 88.0634 810.799 82.736C815.314 77.4085 891.167 26.8825 961.304 86.1809C961.304 86.1809 967.923 86.5009 966.722 102.182C966.014 112.107 966.062 122.074 966.866 131.991C966.866 131.991 815.919 143.286 810.799 131.991Z" fill="black"/>
<path d="M810.799 137.639C810.799 137.639 806.284 93.7109 810.799 88.3834C815.314 83.056 891.167 32.53 961.304 91.8284C961.304 91.8284 967.923 92.1484 966.722 107.83C966.014 117.754 966.062 127.722 966.866 137.639C966.866 137.639 815.919 148.934 810.799 137.639Z" fill="#33323D"/>
<path d="M969.431 117.562C969.431 117.562 974.244 136.387 972.745 139.521C971.246 142.656 971.517 151.447 971.517 151.447C971.517 151.447 971.842 157.094 969.431 157.716C967.02 158.337 964.916 158.657 966.866 160.539C968.817 162.422 966.866 165.245 966.866 165.245C966.866 165.245 965.81 169.641 966.866 172.465C967.923 175.289 960.69 176.465 961.304 179.995C961.918 183.524 963.94 193.483 961.304 193.803C958.667 194.123 962.207 206.35 959.832 206.35C957.457 206.35 955.768 228.309 955.768 228.309C955.768 228.309 939.063 213.569 927.928 217.645C927.928 217.645 928.831 205.408 932.444 201.013C936.056 196.617 934.963 185.332 934.963 185.332L952.879 129.168L969.431 117.562Z" fill="#6EA6A4"/>
<path d="M880.033 377.138C876.123 381.647 871.906 357.57 871.906 357.57C871.906 357.57 860.772 373.571 853.547 362.907C848.545 355.518 852.491 334.585 855.354 322.433C856.636 317.031 857.719 313.36 857.719 313.36L873.974 310.536C873.974 310.536 874.028 314.226 874.389 318.706C874.877 324.758 875.933 332.269 878.182 334.067C882.146 337.183 883.952 372.592 880.033 377.138Z" fill="#AE6E79"/>
<path opacity="0.1" d="M871.608 95.2828C871.608 95.2828 843.307 94.9721 836.39 110.653C829.473 126.334 829.166 131.681 826.457 134.184C823.748 136.688 855.949 149.875 855.949 149.875L857.457 203.837C857.457 203.837 863.778 197.163 874.01 200.184C884.241 203.206 897.19 200.184 897.19 200.184C897.19 200.184 896.585 199.046 905.019 200.184C913.453 201.323 940.237 186.583 940.237 186.583C940.237 186.583 940.679 162.977 940.083 157.951C939.487 152.925 959.191 115.99 959.191 115.99C959.191 115.99 974.542 100.62 958.595 95.2828C958.595 95.2828 952.951 86.4162 938.43 86.5009C923.91 86.5857 871.608 95.2828 871.608 95.2828Z" fill="black"/>
<path d="M871.608 94.3415C871.608 94.3415 843.307 94.0309 836.39 109.712C829.473 125.393 829.166 130.739 826.457 133.243C823.748 135.747 855.949 148.934 855.949 148.934L857.457 202.895C857.457 202.895 863.778 196.222 874.01 199.243C884.241 202.265 897.19 199.243 897.19 199.243C897.19 199.243 896.585 198.104 905.019 199.243C913.453 200.382 940.236 185.642 940.236 185.642C940.236 185.642 950.766 167.759 950.17 162.742C949.574 157.725 971.237 119.755 971.237 119.755C971.237 119.755 974.551 99.6784 958.595 94.3415C958.595 94.3415 952.951 85.475 938.43 85.5597C923.91 85.6444 871.608 94.3415 871.608 94.3415Z" fill="#6EA6A4"/>
<path opacity="0.1" d="M874.461 318.678C868.257 316.664 858.523 321.106 855.426 322.443C856.708 317.04 857.791 313.369 857.791 313.369L874.046 310.545C874.046 310.545 874.073 314.235 874.461 318.678Z" fill="black"/>
<path d="M835.18 133.243H826.457C826.457 133.243 824.651 152.388 826.457 158.036C828.263 163.683 829.166 162.864 828.561 167.043C827.956 171.222 832.778 177.623 832.778 177.623C832.778 177.623 833.374 193.398 836.39 199.271C839.406 205.145 833.076 231.481 833.076 231.481C834.803 236.027 837.357 240.182 840.598 243.717C845.718 249.044 848.427 268.811 846.919 276.341C845.411 283.871 851.136 286.694 851.136 286.694C851.136 286.694 853.547 321.84 854.45 321.84C855.353 321.84 872.809 312.428 878.227 320.579L874.01 288.266L874.317 225.833C874.317 225.833 868.592 217.983 871.608 211.084C874.624 204.185 869.196 187.864 869.196 187.864L861.367 151.475L835.18 133.243Z" fill="#6EA6A4"/>
<path d="M780.999 629.279C780.999 629.279 768.357 626.455 768.059 629.279C767.761 632.103 753.006 660.971 771.373 669.442C789.741 677.913 838.792 696.107 918.564 672.576C918.564 672.576 923.675 674.459 922.474 662.853C921.273 651.248 921.273 638.381 921.273 638.381C921.273 638.381 909.227 634.927 900.197 636.188C891.167 637.449 812.605 654.071 780.999 629.279Z" fill="#33323D"/>
<path opacity="0.1" d="M780.999 629.279C780.999 629.279 768.357 626.455 768.059 629.279C767.761 632.103 753.006 660.971 771.373 669.442C789.741 677.913 838.792 696.107 918.564 672.576C918.564 672.576 923.675 674.459 922.474 662.853C921.273 651.248 921.273 638.381 921.273 638.381C921.273 638.381 909.227 634.927 900.197 636.188C891.167 637.449 812.605 654.071 780.999 629.279Z" fill="black"/>
<path d="M780.999 625.514C780.999 625.514 768.357 622.69 768.059 625.514C767.761 628.338 753.006 657.206 771.373 665.677C789.741 674.148 838.792 692.342 918.564 668.811C918.564 668.811 923.675 670.694 922.474 659.088C921.273 647.483 921.273 634.616 921.273 634.616C921.273 634.616 909.227 631.162 900.197 632.423C891.167 633.684 812.605 650.306 780.999 625.514Z" fill="#33323D"/>
<path d="M854.721 144.519C853.945 149.122 852.184 153.546 851.913 158.205C851.642 162.864 853.367 168.163 857.494 169.989C858.645 170.348 859.761 170.821 860.826 171.401C862.415 172.521 863.065 174.63 863.399 176.606C863.843 179.158 863.949 181.761 863.715 184.343C863.49 186.941 862.957 189.737 864.185 192.005C866.343 196.024 871.969 195.431 876.249 194.302L874.777 206.19C874.66 207.131 874.588 208.194 875.247 208.834C875.558 209.063 875.91 209.224 876.283 209.308C876.655 209.392 877.04 209.398 877.414 209.324C881.134 209.079 884.963 208.543 888.151 206.5C891.338 204.458 893.713 200.655 893.108 196.824C892.404 192.382 887.997 188.852 888.593 184.39C889.054 180.936 892.296 178.743 894.427 176.089C898.283 171.232 898.49 163.852 895.465 158.356C892.44 152.859 886.598 149.451 880.584 148.83C877.251 148.482 873.784 148.905 870.65 147.701C869.56 147.284 868.577 146.61 867.778 145.731C866.979 144.853 866.386 143.794 866.045 142.637" fill="#444053"/>
<path d="M749.701 563.081L752.853 555.928C752.853 555.928 769.865 539.409 773.775 538.251C777.685 537.094 793.642 532.049 796.053 532.049C798.464 532.049 842.413 529.535 842.413 529.535L847.524 542.092L792.368 554.714L773.775 568.832L749.701 563.081Z" fill="#767D9F"/>
<path d="M882.218 370.437L879.337 393.544L878.227 402.439L865.286 404.322C865.286 404.322 863.887 401.197 861.909 396.396C855.904 381.826 844.598 351.781 851.154 346.595C859.868 339.686 861.99 362.596 861.99 362.596L871.924 357.57L882.218 370.437Z" fill="#FFB9B9"/>
<path d="M880.06 413.423H814.709V516.33H880.06V413.423Z" fill="white"/>
<path opacity="0.1" d="M880.06 413.423H814.709V516.33H880.06V413.423Z" fill="black"/>
<path d="M909.432 418.995L844.783 409.033L830.344 510.832L894.992 520.795L909.432 418.995Z" fill="white"/>
<path d="M884.144 423.869L850.869 418.741L843.438 471.136L876.713 476.264L884.144 423.869Z" fill="#F48E41"/>
<path d="M880.185 492.259L839.87 486.046L838.256 497.424L878.571 503.637L880.185 492.259Z" fill="#F48E41"/>
<path opacity="0.1" d="M897.19 153.791C918.051 153.791 934.963 136.163 934.963 114.418C934.963 92.6735 918.051 75.046 897.19 75.046C876.329 75.046 859.417 92.6735 859.417 114.418C859.417 136.163 876.329 153.791 897.19 153.791Z" fill="black"/>
<path d="M897.19 152.849C918.051 152.849 934.963 135.222 934.963 113.477C934.963 91.7323 918.051 74.1047 897.19 74.1047C876.329 74.1047 859.417 91.7323 859.417 113.477C859.417 135.222 876.329 152.849 897.19 152.849Z" fill="#AE6E79"/>
<path d="M866.045 142.656C865.788 141.641 865.881 140.566 866.307 139.615C867.743 136.5 871.833 136.227 875.147 136.387C882.94 136.763 891.492 136.81 897.587 131.681C900.116 129.572 902.942 124.273 906.617 125.28C909.886 126.174 911.25 130.796 914.654 131.822C917.119 132.565 919.675 131.379 922.185 130.881C925.797 130.137 929.5 130.758 933.166 130.786C936.832 130.815 940.814 130.09 943.316 127.294C946.693 123.529 946.142 117.647 945.844 112.489C945.474 105.826 945.907 99.1409 947.135 92.5908C948.363 86.0774 950.251 78.7921 946.801 73.2106C943.514 67.8925 936.706 66.4336 932.055 62.358C927.703 58.593 925.4 52.5596 920.804 49.0676C915.015 44.672 907.15 45.3026 900.034 46.0651L884.593 47.7781C880.61 48.2205 876.466 48.7194 873.188 51.1948C867.273 55.6563 866.46 64.9276 860.862 69.8127C858.369 71.9775 855.182 73.0505 852.337 74.6695C849.493 76.2884 846.748 78.8486 846.422 82.1994C846.152 85.0232 847.614 87.6304 848.328 90.3506C850.016 96.8452 847.38 103.528 845.691 110.07C844.002 116.611 843.677 124.555 848.581 128.895C849.574 129.779 850.73 130.457 851.696 131.379C855.01 134.533 855.462 139.851 854.694 144.444" fill="#444053"/>
<path d="M900.269 162.657C900.768 162.657 901.172 161.604 901.172 160.304C901.172 159.004 900.768 157.951 900.269 157.951C899.771 157.951 899.366 159.004 899.366 160.304C899.366 161.604 899.771 162.657 900.269 162.657Z" fill="#444053"/>
<path d="M900.269 172.465C900.768 172.465 901.172 171.411 901.172 170.112C901.172 168.812 900.768 167.759 900.269 167.759C899.771 167.759 899.366 168.812 899.366 170.112C899.366 171.411 899.771 172.465 900.269 172.465Z" fill="#444053"/>
<path d="M880.24 377.073C881.207 375.915 881.848 372.941 882.218 369.016L871.454 355.029C871.454 355.029 876.014 382.146 880.24 377.073Z" fill="#AE6E79"/>
<path opacity="0.1" d="M892.377 608.261C892.377 608.261 874.714 636.724 819.531 633.675C767.545 630.851 742.17 604.185 743.38 594.773C744.59 585.361 740.066 562.451 751.2 555.862C757.657 552.05 766.154 554.309 772.15 556.888C774.221 557.765 776.489 558.012 778.69 557.6C780.891 557.189 782.934 556.136 784.584 554.563C790.066 549.414 800.288 543.616 816.425 548.181C818.501 548.759 820.691 548.716 822.746 548.059C829.464 545.922 845.456 542.214 857.06 550.45C858.894 551.767 861.05 552.514 863.276 552.602C865.501 552.691 867.705 552.117 869.63 550.949L869.793 550.845C875.211 547.391 900.495 580.024 900.495 580.024C900.495 580.024 901.705 605.127 892.377 608.261Z" fill="black"/>
<path d="M892.377 609.202C892.377 609.202 874.714 637.666 819.531 634.616C767.545 631.792 742.17 605.127 743.38 595.714C744.59 586.302 740.066 563.392 751.2 556.803C757.657 552.991 766.154 555.25 772.15 557.829C774.221 558.706 776.489 558.953 778.69 558.542C780.891 558.13 782.934 557.077 784.584 555.504C790.066 550.356 800.288 544.558 816.425 549.123C818.501 549.7 820.691 549.658 822.746 549C829.464 546.864 845.456 543.155 857.06 551.391C858.894 552.709 861.05 553.455 863.276 553.544C865.501 553.632 867.705 553.058 869.63 551.89L869.793 551.786C875.211 548.332 900.495 580.965 900.495 580.965C900.495 580.965 901.705 606.068 892.377 609.202Z" fill="#767D9F"/>
<path opacity="0.1" d="M819.531 620.347C839.4 620.347 855.507 603.558 855.507 582.847C855.507 562.137 839.4 545.348 819.531 545.348C799.662 545.348 783.555 562.137 783.555 582.847C783.555 603.558 799.662 620.347 819.531 620.347Z" fill="black"/>
<path d="M819.531 621.288C839.4 621.288 855.507 604.499 855.507 583.789C855.507 563.078 839.4 546.289 819.531 546.289C799.662 546.289 783.555 563.078 783.555 583.789C783.555 604.499 799.662 621.288 819.531 621.288Z" fill="#FFB9B9"/>
<path d="M809.219 551.372C805.444 552.436 801.724 554.469 799.881 557.81C798.771 559.825 798.382 562.244 796.775 563.919C794.499 566.3 790.662 566.347 787.582 567.684C784.503 569.021 782.471 573.727 785.487 575.214C782.345 575.383 780.015 578.405 779.627 581.407C779.239 584.41 780.331 587.403 781.388 590.264C784.837 599.526 788.549 609.193 796.152 615.782C808.541 626.531 827.216 626.032 843.858 624.893C845.218 624.94 846.566 624.615 847.768 623.952C849.574 622.709 849.8 620.328 850.098 618.238C851.353 609.315 855.995 601.211 859.029 592.693C862.063 584.175 863.309 574.169 858.198 566.63C850.676 555.448 821.879 547.795 809.219 551.372Z" fill="#F48E41"/>
<path opacity="0.1" d="M879.337 393.544L878.227 402.439L865.286 404.322C865.286 404.322 863.887 401.197 861.909 396.396L879.13 393.027L879.337 393.544Z" fill="black"/>
<path d="M892.973 590.067L900.504 580.965L898.996 530.768C899.738 527.147 900.242 523.477 900.504 519.784C900.802 514.447 896.738 502.531 896.738 502.531C897.369 500.146 898.225 497.831 899.294 495.622C901.1 491.857 896.747 483.386 896.747 483.386C896.747 483.386 890.264 461.427 892.973 450.443C895.682 439.458 892.314 433.19 892.314 433.19C892.314 433.19 889.668 420.953 889.966 415.937C890.264 410.92 883.943 406.204 883.943 406.204L879.13 393.968L859.868 397.733V440.089C859.868 440.089 861.069 480.562 859.868 488.412C858.667 496.262 862.27 503.783 862.27 503.783C862.27 503.783 860.166 515.388 861.972 519.784C863.778 524.18 867.39 534.844 867.39 534.844C866.72 538.655 866.927 542.578 867.996 546.29C869.802 551.786 867.996 554.921 867.996 554.921L892.973 590.067Z" fill="#767D9F"/>
<g opacity="0.1">
<path opacity="0.1" d="M947.163 89.4941C946.144 95.0038 945.687 100.61 945.799 106.22C945.876 101.555 946.345 96.9068 947.199 92.3272C947.993 88.1481 949.005 83.6489 948.788 79.4792C948.455 82.8507 947.912 86.1961 947.163 89.4941Z" fill="black"/>
<path opacity="0.1" d="M851.723 128.349C850.757 127.407 849.601 126.749 848.608 125.854C845.971 123.511 844.86 120.113 844.644 116.442C844.382 121.148 845.303 125.704 848.608 128.678C849.601 129.572 850.757 130.25 851.723 131.172C853.743 133.256 854.914 136.071 854.992 139.032C855.254 135.079 854.486 130.965 851.723 128.349Z" fill="black"/>
<path opacity="0.1" d="M848.843 93.2026C849.001 91.2146 848.836 89.213 848.355 87.2822C847.831 85.2679 846.892 83.3007 846.549 81.277C846.549 81.4935 846.477 81.7194 846.45 81.9547C846.188 84.7785 847.651 87.3857 848.355 90.1059C848.615 91.119 848.778 92.1562 848.843 93.2026Z" fill="black"/>
<path opacity="0.1" d="M943.343 124.198C940.841 127.022 936.859 127.718 933.193 127.69C929.527 127.662 925.815 127.04 922.212 127.793C919.702 128.32 917.146 129.497 914.681 128.735C911.277 127.709 909.913 123.087 906.653 122.193C902.942 121.176 900.116 126.476 897.623 128.584C891.528 133.667 882.976 133.62 875.183 133.29C871.869 133.13 867.779 133.403 866.352 136.528C865.917 137.476 865.824 138.555 866.09 139.568L855.055 141.376C855.014 142.322 854.914 143.266 854.757 144.199L866.09 142.317C865.824 141.303 865.917 140.224 866.352 139.277C867.779 136.152 871.869 135.879 875.183 136.039C882.976 136.415 891.528 136.462 897.623 131.332C900.152 129.224 902.978 123.925 906.653 124.941C909.913 125.826 911.277 130.457 914.681 131.483C917.146 132.217 919.702 131.041 922.212 130.542C925.824 129.789 929.527 130.41 933.193 130.438C936.859 130.466 940.841 129.742 943.343 126.946C945.844 124.151 946.205 119.981 946.052 115.915C945.943 119.068 945.32 121.986 943.343 124.198Z" fill="black"/>
</g>
<g opacity="0.1">
<path opacity="0.1" d="M859.751 169.406C858.688 168.822 857.571 168.349 856.419 167.994C854.459 167.066 852.904 165.407 852.057 163.344C852.735 166.591 854.45 169.547 857.322 170.818C858.474 171.173 859.591 171.646 860.654 172.23C861.334 172.73 861.883 173.4 862.252 174.178C861.891 172.333 861.232 170.451 859.751 169.406Z" fill="black"/>
<path opacity="0.1" d="M875.174 192.306C871.011 193.408 865.575 193.982 863.291 190.301C863.362 191.188 863.608 192.05 864.013 192.833C865.964 196.457 870.732 196.335 874.786 195.441L875.174 192.306Z" fill="black"/>
<path opacity="0.1" d="M892.043 194.885C892.621 198.707 890.237 202.519 887.076 204.524C883.916 206.528 880.06 207.084 876.339 207.347C875.748 207.427 875.147 207.356 874.587 207.14C874.418 207.538 874.363 207.979 874.43 208.409C874.497 208.839 874.683 209.239 874.964 209.56C875.246 209.882 875.612 210.111 876.016 210.219C876.421 210.328 876.847 210.311 877.242 210.171C880.963 209.926 884.791 209.39 887.979 207.347C891.167 205.305 893.551 201.502 892.937 197.671C892.763 196.704 892.462 195.767 892.043 194.885Z" fill="black"/>
<path opacity="0.1" d="M896.052 160.812C896.603 163.101 896.646 165.49 896.176 167.798C895.707 170.106 894.738 172.272 893.343 174.131C891.212 176.823 887.97 178.978 887.51 182.433C887.356 184.021 887.671 185.62 888.413 187.016C888.331 186.433 888.331 185.84 888.413 185.256C888.873 181.802 892.115 179.609 894.246 176.955C897.75 172.54 898.237 166.036 896.052 160.812Z" fill="black"/>
</g>
<g opacity="0.1">
<path opacity="0.1" d="M787.592 569.134C790.662 567.806 794.5 567.759 796.785 565.369C798.392 563.693 798.78 561.274 799.891 559.269C801.697 555.919 805.444 553.895 809.219 552.831C821.861 549.254 850.685 556.897 858.198 567.976C860.4 571.328 861.601 575.284 861.648 579.346C861.937 574.657 860.727 569.999 858.207 566.103C850.694 555.024 821.897 547.381 809.228 550.958C805.454 552.022 801.733 554.045 799.9 557.396C798.789 559.401 798.401 561.82 796.794 563.496C794.509 565.877 790.671 565.924 787.601 567.261C785.262 568.268 783.528 571.242 784.161 573.237C784.412 572.335 784.85 571.5 785.442 570.791C786.035 570.083 786.768 569.517 787.592 569.134Z" fill="black"/>
<path opacity="0.1" d="M779.645 582.81C780.024 579.798 782.354 576.786 785.505 576.616C785.174 576.473 784.879 576.253 784.64 575.975C784.4 575.696 784.224 575.366 784.124 575.007C782.925 575.471 781.871 576.268 781.075 577.312C780.279 578.355 779.772 579.605 779.609 580.927C779.523 581.693 779.523 582.467 779.609 583.233C779.645 583.092 779.645 582.951 779.645 582.81Z" fill="black"/>
</g>
<path d="M970.93 241.712H888.756V353.41H970.93V241.712Z" fill="white"/>
<path opacity="0.1" d="M970.93 241.712H888.756V353.41H970.93V241.712Z" fill="black"/>
<path d="M1002.33 248.265L921.341 262.785L939.507 372.866L1020.49 358.346L1002.33 248.265Z" fill="white"/>
<path d="M959.996 334.416L940.969 337.827L945.237 363.689L964.264 360.278L959.996 334.416Z" fill="#F48E41"/>
<path d="M986.325 329.69L967.298 333.102L971.566 358.964L990.593 355.552L986.325 329.69Z" fill="#F48E41"/>
<path d="M1004.93 291.8L938.204 303.743L942.484 329.723L1009.21 317.779L1004.93 291.8Z" fill="#F48E41"/>
<path d="M999.369 260.793L932.643 272.737L933.597 278.533L1000.32 266.589L999.369 260.793Z" fill="#F48E41"/>
<path d="M1001.56 271.455L934.831 283.399L935.786 289.195L1002.51 277.251L1001.56 271.455Z" fill="#F48E41"/>
<path d="M934.963 211.366C934.963 211.366 897.19 250.899 916.153 260.942C935.116 270.985 947.461 227.528 947.461 227.528L950.459 217.645L934.963 211.366Z" fill="#AE6E79"/>
<path opacity="0.1" d="M931.658 207.874L926.989 218.623C926.989 218.623 950.016 221.993 954.829 229.25L951.976 210.284L948.589 202.189L931.658 207.874Z" fill="black"/>
<path d="M932.561 206.933L927.892 217.682C927.892 217.682 950.919 221.052 955.732 228.309L952.879 209.343L949.492 201.248L932.561 206.933Z" fill="#6EA6A4"/>
<path d="M1071.95 404.566L1071.45 404.924L1072.14 405.244L1072.88 405.178L1072.97 404.642L1071.95 404.566Z" fill="#464A5F"/>
<path opacity="0.1" d="M1071.95 404.566L1071.45 404.924L1072.14 405.244L1072.88 405.178L1072.97 404.642L1071.95 404.566Z" fill="black"/>
<path d="M1071.95 404.566L1071.44 404.905L1071.05 404.397L1071.29 403.983L1071.52 403.907L1071.95 404.566Z" fill="#9C9CA1"/>
<path opacity="0.1" d="M1071.95 404.566L1071.44 404.905L1071.05 404.397L1071.29 403.983L1071.52 403.907L1071.95 404.566Z" fill="black"/>
<path d="M1160.83 339.517L1123.86 283.861C1123.54 283.364 1123.12 282.94 1122.63 282.612C1122.15 282.284 1121.61 282.059 1121.04 281.949C1120.47 281.84 1119.88 281.849 1119.32 281.975C1118.75 282.101 1118.22 282.342 1117.74 282.685L1035.33 341.644C1034.37 342.334 1033.71 343.394 1033.49 344.592C1033.28 345.791 1033.53 347.029 1034.19 348.035L1071.06 404.397L1160.83 339.517Z" fill="#9C9CA1"/>
<path opacity="0.1" d="M1160.83 339.517L1123.86 283.861C1123.54 283.364 1123.12 282.94 1122.63 282.612C1122.15 282.284 1121.61 282.059 1121.04 281.949C1120.47 281.84 1119.88 281.849 1119.32 281.975C1118.75 282.101 1118.22 282.342 1117.74 282.685L1035.33 341.644C1034.37 342.334 1033.71 343.394 1033.49 344.592C1033.28 345.791 1033.53 347.029 1034.19 348.035L1071.06 404.397L1160.83 339.517Z" fill="black"/>
<path d="M1161.74 339.649L1124.77 283.993C1124.44 283.496 1124.02 283.071 1123.53 282.743C1123.05 282.415 1122.5 282.19 1121.93 282.08C1121.37 281.971 1120.78 281.98 1120.21 282.106C1119.65 282.232 1119.11 282.474 1118.64 282.816L1036.24 341.814C1035.27 342.504 1034.61 343.563 1034.39 344.761C1034.18 345.958 1034.42 347.196 1035.08 348.205L1071.95 404.595L1161.74 339.649Z" fill="#9C9CA1"/>
<path d="M1192.64 350.652L1161.93 340.373L1072.14 405.253L1103.33 415.89C1104.03 416.126 1104.77 416.189 1105.49 416.075C1106.22 415.961 1106.91 415.672 1107.51 415.231L1192.89 352.393C1193.05 352.3 1193.18 352.157 1193.26 351.986C1193.34 351.814 1193.37 351.62 1193.34 351.431C1193.31 351.242 1193.23 351.066 1193.11 350.927C1192.98 350.788 1192.82 350.692 1192.64 350.652Z" fill="#464A5F"/>
<path opacity="0.1" d="M1192.64 350.652L1161.93 340.373L1072.14 405.253L1103.33 415.89C1104.03 416.126 1104.77 416.189 1105.49 416.075C1106.22 415.961 1106.91 415.672 1107.51 415.231L1192.89 352.393C1193.05 352.3 1193.18 352.157 1193.26 351.986C1193.34 351.814 1193.37 351.62 1193.34 351.431C1193.31 351.242 1193.23 351.066 1193.11 350.927C1192.98 350.788 1192.82 350.692 1192.64 350.652Z" fill="black"/>
<path d="M1192.45 350.002L1161.75 339.715L1071.95 404.595L1103.14 415.212C1103.84 415.453 1104.58 415.519 1105.3 415.406C1106.03 415.294 1106.72 415.004 1107.32 414.562L1192.7 351.725C1192.85 351.629 1192.98 351.487 1193.05 351.318C1193.13 351.149 1193.16 350.96 1193.13 350.775C1193.1 350.59 1193.02 350.418 1192.9 350.281C1192.78 350.143 1192.62 350.046 1192.45 350.002Z" fill="#464A5F"/>
<g opacity="0.1">
<path opacity="0.1" d="M1147.23 337.164L1144.97 333.775C1144.83 333.579 1144.63 333.445 1144.4 333.401C1144.17 333.357 1143.93 333.407 1143.74 333.54L1140.37 335.884C1140.18 336.023 1140.05 336.232 1140.01 336.468C1139.96 336.705 1140 336.95 1140.13 337.154L1142.21 340.496C1142.34 340.696 1142.54 340.836 1142.77 340.887C1143 340.938 1143.23 340.895 1143.43 340.769L1146.98 338.444C1147.17 338.306 1147.31 338.096 1147.36 337.857C1147.4 337.618 1147.36 337.37 1147.23 337.164Z" fill="black"/>
<path opacity="0.1" d="M1141.18 341.531L1138.91 338.152C1138.77 337.956 1138.57 337.821 1138.34 337.778C1138.11 337.734 1137.87 337.784 1137.68 337.917L1134.32 340.279C1134.13 340.417 1134 340.625 1133.95 340.862C1133.9 341.099 1133.95 341.345 1134.07 341.55L1136.15 344.891C1136.28 345.093 1136.48 345.235 1136.71 345.288C1136.94 345.34 1137.17 345.3 1137.37 345.174L1140.93 342.849C1141.03 342.781 1141.12 342.692 1141.19 342.588C1141.25 342.485 1141.3 342.368 1141.32 342.245C1141.35 342.123 1141.35 341.996 1141.32 341.874C1141.3 341.751 1141.25 341.635 1141.18 341.531Z" fill="black"/>
<path opacity="0.1" d="M1134.83 346.115L1132.55 342.736C1132.41 342.539 1132.21 342.405 1131.98 342.361C1131.75 342.318 1131.52 342.367 1131.32 342.501L1127.95 344.863C1127.76 345.002 1127.63 345.213 1127.59 345.452C1127.54 345.691 1127.58 345.938 1127.71 346.143L1129.8 349.485C1129.93 349.685 1130.13 349.825 1130.35 349.876C1130.58 349.927 1130.82 349.884 1131.02 349.758L1134.56 347.433C1134.67 347.365 1134.75 347.277 1134.82 347.174C1134.89 347.071 1134.94 346.954 1134.96 346.831C1134.99 346.709 1134.99 346.582 1134.96 346.459C1134.94 346.336 1134.89 346.219 1134.83 346.115Z" fill="black"/>
<path opacity="0.1" d="M1128.39 350.765L1126.11 347.376C1125.98 347.182 1125.77 347.05 1125.55 347.006C1125.32 346.962 1125.09 347.011 1124.89 347.141L1121.53 349.513C1121.34 349.652 1121.21 349.861 1121.16 350.098C1121.11 350.334 1121.16 350.58 1121.28 350.784L1123.37 354.125C1123.5 354.324 1123.69 354.464 1123.92 354.517C1124.14 354.569 1124.38 354.53 1124.58 354.407L1128.14 352.073C1128.23 352.005 1128.32 351.917 1128.39 351.814C1128.45 351.711 1128.5 351.595 1128.52 351.474C1128.55 351.352 1128.55 351.227 1128.52 351.105C1128.5 350.984 1128.45 350.868 1128.39 350.765Z" fill="black"/>
<path opacity="0.1" d="M1121.96 355.405L1119.68 352.026C1119.55 351.83 1119.34 351.695 1119.11 351.652C1118.89 351.608 1118.65 351.658 1118.45 351.791L1115.1 354.153C1114.91 354.291 1114.77 354.499 1114.73 354.736C1114.68 354.972 1114.72 355.219 1114.84 355.424L1116.93 358.765C1117.06 358.967 1117.26 359.109 1117.48 359.162C1117.71 359.214 1117.95 359.173 1118.15 359.048L1121.71 356.713C1121.81 356.645 1121.89 356.557 1121.96 356.454C1122.02 356.351 1122.07 356.236 1122.09 356.114C1122.12 355.993 1122.12 355.867 1122.09 355.746C1122.07 355.624 1122.02 355.508 1121.96 355.405Z" fill="black"/>
<path opacity="0.1" d="M1115.81 360.469L1112.98 356.271C1112.95 356.224 1112.91 356.184 1112.87 356.153C1112.82 356.122 1112.77 356.101 1112.72 356.09C1112.67 356.08 1112.61 356.081 1112.56 356.092C1112.51 356.104 1112.46 356.126 1112.41 356.158L1108.28 359.067C1108.23 359.097 1108.19 359.137 1108.16 359.183C1108.13 359.23 1108.11 359.282 1108.1 359.337C1108.09 359.393 1108.09 359.45 1108.1 359.505C1108.11 359.56 1108.13 359.613 1108.16 359.66L1110.75 363.81C1110.81 363.906 1110.9 363.973 1111.01 363.998C1111.12 364.022 1111.23 364.002 1111.32 363.942L1115.69 361.118C1115.74 361.087 1115.79 361.045 1115.82 360.994C1115.86 360.942 1115.88 360.884 1115.89 360.822C1115.91 360.76 1115.9 360.697 1115.89 360.636C1115.87 360.575 1115.85 360.518 1115.81 360.469Z" fill="black"/>
<path opacity="0.1" d="M1109.38 365.109L1106.54 360.911C1106.5 360.864 1106.46 360.824 1106.42 360.793C1106.37 360.762 1106.32 360.741 1106.27 360.73C1106.21 360.72 1106.16 360.72 1106.11 360.732C1106.05 360.744 1106 360.766 1105.96 360.798L1101.82 363.707C1101.73 363.772 1101.67 363.87 1101.65 363.981C1101.63 364.091 1101.65 364.206 1101.71 364.3L1104.3 368.451C1104.33 368.5 1104.37 368.543 1104.41 368.576C1104.46 368.61 1104.51 368.634 1104.56 368.646C1104.61 368.659 1104.67 368.659 1104.72 368.648C1104.78 368.637 1104.83 368.615 1104.87 368.583L1109.24 365.759C1109.29 365.732 1109.34 365.692 1109.38 365.642C1109.42 365.592 1109.45 365.533 1109.46 365.471C1109.47 365.408 1109.47 365.343 1109.46 365.281C1109.45 365.218 1109.42 365.159 1109.38 365.109Z" fill="black"/>
<path opacity="0.1" d="M1103.68 369.223L1100.86 365.062C1100.79 364.971 1100.7 364.91 1100.59 364.891C1100.48 364.871 1100.38 364.896 1100.29 364.959L1096.15 367.858C1096.06 367.923 1096 368.022 1095.98 368.134C1095.95 368.247 1095.97 368.363 1096.03 368.46L1098.62 372.611C1098.69 372.705 1098.78 372.77 1098.88 372.795C1098.99 372.819 1099.1 372.801 1099.19 372.743L1103.56 369.919C1103.62 369.889 1103.68 369.845 1103.72 369.79C1103.76 369.735 1103.78 369.671 1103.8 369.603C1103.81 369.534 1103.8 369.464 1103.78 369.398C1103.76 369.332 1103.73 369.272 1103.68 369.223Z" fill="black"/>
<path opacity="0.1" d="M1097.31 373.816L1094.48 369.618C1094.42 369.527 1094.32 369.466 1094.22 369.446C1094.11 369.427 1094 369.451 1093.91 369.514L1089.78 372.413C1089.73 372.445 1089.69 372.485 1089.66 372.533C1089.63 372.58 1089.61 372.633 1089.6 372.689C1089.59 372.745 1089.59 372.803 1089.6 372.859C1089.61 372.915 1089.63 372.968 1089.66 373.016L1092.25 377.167C1092.31 377.26 1092.4 377.326 1092.51 377.35C1092.61 377.375 1092.73 377.356 1092.82 377.298L1097.19 374.475C1097.24 374.443 1097.29 374.399 1097.32 374.347C1097.36 374.295 1097.38 374.236 1097.39 374.173C1097.4 374.111 1097.4 374.047 1097.39 373.985C1097.37 373.923 1097.34 373.866 1097.31 373.816Z" fill="black"/>
<path opacity="0.1" d="M1091.13 378.24L1088.3 374.042C1088.27 373.995 1088.23 373.955 1088.19 373.924C1088.15 373.893 1088.09 373.872 1088.04 373.861C1087.99 373.851 1087.93 373.851 1087.88 373.863C1087.83 373.874 1087.78 373.897 1087.73 373.929L1083.6 376.837C1083.55 376.868 1083.51 376.907 1083.48 376.954C1083.45 377 1083.43 377.053 1083.42 377.108C1083.41 377.163 1083.41 377.22 1083.42 377.276C1083.43 377.331 1083.45 377.383 1083.48 377.43L1086.07 381.581C1086.13 381.677 1086.23 381.744 1086.33 381.768C1086.44 381.793 1086.55 381.773 1086.64 381.713L1091.01 378.889C1091.07 378.858 1091.11 378.816 1091.15 378.764C1091.18 378.713 1091.2 378.655 1091.22 378.593C1091.23 378.531 1091.23 378.467 1091.21 378.406C1091.2 378.345 1091.17 378.289 1091.13 378.24Z" fill="black"/>
<path opacity="0.1" d="M1084.95 382.739L1082.15 378.532C1082.09 378.441 1082 378.379 1081.89 378.36C1081.78 378.34 1081.67 378.365 1081.58 378.428L1077.45 381.327C1077.4 381.358 1077.36 381.399 1077.33 381.446C1077.3 381.494 1077.28 381.547 1077.27 381.603C1077.26 381.659 1077.26 381.716 1077.27 381.772C1077.28 381.829 1077.3 381.882 1077.33 381.929L1079.92 386.08C1079.98 386.174 1080.08 386.24 1080.18 386.264C1080.29 386.289 1080.4 386.27 1080.49 386.212L1084.86 383.388C1084.91 383.355 1084.96 383.31 1084.99 383.258C1085.02 383.206 1085.04 383.147 1085.05 383.085C1085.06 383.024 1085.06 382.961 1085.04 382.901C1085.02 382.841 1084.99 382.786 1084.95 382.739Z" fill="black"/>
<path opacity="0.1" d="M1078.78 387.191L1075.95 382.993C1075.92 382.946 1075.88 382.906 1075.84 382.875C1075.79 382.844 1075.74 382.823 1075.69 382.812C1075.64 382.802 1075.58 382.802 1075.53 382.814C1075.48 382.826 1075.43 382.848 1075.38 382.88L1071.25 385.77C1071.2 385.8 1071.16 385.84 1071.13 385.886C1071.1 385.933 1071.08 385.985 1071.07 386.04C1071.06 386.096 1071.06 386.153 1071.07 386.208C1071.08 386.263 1071.1 386.316 1071.13 386.363L1073.72 390.514C1073.78 390.609 1073.87 390.676 1073.98 390.701C1074.08 390.726 1074.2 390.706 1074.29 390.645L1078.66 387.822C1078.71 387.79 1078.75 387.748 1078.79 387.699C1078.82 387.649 1078.84 387.593 1078.85 387.533C1078.86 387.474 1078.86 387.413 1078.85 387.354C1078.84 387.295 1078.81 387.239 1078.78 387.191Z" fill="black"/>
<path opacity="0.1" d="M1143.17 331.036L1140.89 327.648C1140.76 327.451 1140.55 327.317 1140.33 327.273C1140.1 327.229 1139.86 327.279 1139.67 327.413L1136.33 329.784C1136.14 329.922 1136.01 330.131 1135.96 330.367C1135.92 330.604 1135.96 330.85 1136.08 331.055L1138.17 334.397C1138.3 334.597 1138.5 334.737 1138.72 334.788C1138.95 334.838 1139.19 334.796 1139.39 334.67L1142.94 332.345C1143.14 332.202 1143.27 331.984 1143.32 331.739C1143.36 331.494 1143.31 331.241 1143.17 331.036Z" fill="black"/>
<path opacity="0.1" d="M1134.28 317.642L1132 314.235C1131.86 314.041 1131.66 313.909 1131.44 313.865C1131.21 313.821 1130.97 313.869 1130.78 314L1127.41 316.362C1127.22 316.5 1127.09 316.708 1127.04 316.945C1127 317.181 1127.04 317.428 1127.16 317.633L1129.25 320.974C1129.38 321.176 1129.57 321.318 1129.8 321.371C1130.03 321.423 1130.27 321.382 1130.47 321.257L1134.02 318.932C1134.22 318.794 1134.35 318.582 1134.4 318.341C1134.45 318.1 1134.4 317.849 1134.28 317.642Z" fill="black"/>
<path opacity="0.1" d="M1137.11 335.404L1134.84 332.025C1134.7 331.831 1134.5 331.698 1134.27 331.654C1134.04 331.611 1133.81 331.659 1133.62 331.789L1130.25 334.152C1130.06 334.291 1129.93 334.5 1129.88 334.736C1129.84 334.973 1129.88 335.218 1130 335.423L1132.08 338.764C1132.21 338.966 1132.41 339.108 1132.64 339.16C1132.86 339.213 1133.1 339.172 1133.3 339.046L1136.86 336.721C1136.96 336.653 1137.05 336.564 1137.11 336.461C1137.18 336.357 1137.23 336.241 1137.25 336.118C1137.27 335.995 1137.27 335.869 1137.25 335.746C1137.23 335.624 1137.18 335.507 1137.11 335.404Z" fill="black"/>
<path opacity="0.1" d="M1130.75 339.988L1128.48 336.608C1128.34 336.412 1128.14 336.278 1127.91 336.234C1127.68 336.19 1127.44 336.24 1127.25 336.373L1123.89 338.707C1123.7 338.845 1123.56 339.056 1123.52 339.294C1123.47 339.533 1123.51 339.782 1123.64 339.988L1125.72 343.329C1125.85 343.529 1126.05 343.669 1126.28 343.72C1126.51 343.771 1126.75 343.729 1126.94 343.602L1130.5 341.277C1130.7 341.139 1130.83 340.927 1130.88 340.686C1130.93 340.445 1130.88 340.194 1130.75 339.988Z" fill="black"/>
<path opacity="0.1" d="M1124.32 344.637L1122.05 341.249C1121.91 341.052 1121.71 340.918 1121.48 340.874C1121.25 340.83 1121.02 340.88 1120.82 341.014L1117.45 343.414C1117.26 343.553 1117.13 343.762 1117.09 343.998C1117.04 344.235 1117.09 344.48 1117.21 344.684L1119.29 348.026C1119.43 348.226 1119.62 348.366 1119.85 348.417C1120.08 348.468 1120.32 348.425 1120.51 348.299L1124.06 345.974C1124.17 345.905 1124.25 345.816 1124.32 345.711C1124.39 345.606 1124.44 345.487 1124.46 345.362C1124.49 345.237 1124.49 345.108 1124.46 344.984C1124.44 344.859 1124.39 344.741 1124.32 344.637Z" fill="black"/>
<path opacity="0.1" d="M1128.36 322.226L1126.09 318.847C1125.95 318.653 1125.75 318.521 1125.52 318.477C1125.29 318.433 1125.06 318.481 1124.87 318.612L1121.5 320.974C1121.31 321.112 1121.18 321.321 1121.13 321.557C1121.08 321.794 1121.12 322.04 1121.25 322.245L1123.33 325.587C1123.46 325.788 1123.66 325.93 1123.89 325.983C1124.11 326.035 1124.35 325.995 1124.55 325.869L1128.11 323.544C1128.21 323.476 1128.3 323.387 1128.36 323.283C1128.43 323.18 1128.48 323.063 1128.5 322.94C1128.52 322.818 1128.52 322.691 1128.5 322.569C1128.48 322.446 1128.43 322.33 1128.36 322.226Z" fill="black"/>
<path opacity="0.1" d="M1122 326.82L1119.73 323.431C1119.59 323.234 1119.39 323.1 1119.16 323.056C1118.93 323.013 1118.69 323.063 1118.5 323.196L1115.14 325.53C1114.95 325.668 1114.82 325.876 1114.77 326.113C1114.72 326.349 1114.77 326.596 1114.89 326.801L1116.97 330.142C1117.1 330.342 1117.3 330.482 1117.53 330.533C1117.76 330.584 1118 330.542 1118.19 330.415L1121.75 328.09C1121.94 327.953 1122.07 327.744 1122.12 327.508C1122.17 327.271 1122.13 327.025 1122 326.82Z" fill="black"/>
<path opacity="0.1" d="M1115.57 331.46L1113.29 328.081C1113.16 327.885 1112.95 327.751 1112.73 327.705C1112.5 327.66 1112.27 327.707 1112.07 327.836L1108.7 330.236C1108.51 330.375 1108.38 330.584 1108.34 330.821C1108.29 331.057 1108.34 331.303 1108.46 331.507L1110.54 334.848C1110.67 335.05 1110.87 335.192 1111.1 335.245C1111.33 335.297 1111.56 335.256 1111.76 335.131L1115.31 332.796C1115.42 332.728 1115.5 332.639 1115.57 332.533C1115.64 332.428 1115.69 332.31 1115.71 332.185C1115.74 332.06 1115.74 331.931 1115.71 331.806C1115.69 331.682 1115.64 331.564 1115.57 331.46Z" fill="black"/>
<path opacity="0.1" d="M1117.89 349.278L1115.61 345.899C1115.48 345.703 1115.27 345.569 1115.05 345.523C1114.82 345.478 1114.59 345.524 1114.39 345.654L1111.05 348.026C1110.86 348.165 1110.73 348.374 1110.69 348.61C1110.64 348.847 1110.68 349.092 1110.81 349.296L1112.86 352.638C1112.99 352.837 1113.18 352.977 1113.41 353.03C1113.63 353.082 1113.87 353.043 1114.07 352.92L1117.62 350.586C1117.72 350.518 1117.81 350.431 1117.88 350.328C1117.94 350.226 1117.99 350.11 1118.02 349.989C1118.04 349.867 1118.04 349.742 1118.02 349.62C1118 349.498 1117.95 349.381 1117.89 349.278Z" fill="black"/>
<path opacity="0.1" d="M1111.46 353.918L1109.18 350.539C1109.04 350.342 1108.84 350.208 1108.61 350.164C1108.38 350.121 1108.15 350.17 1107.95 350.304L1104.59 352.666C1104.4 352.804 1104.27 353.012 1104.22 353.249C1104.18 353.485 1104.22 353.732 1104.34 353.937L1106.43 357.278C1106.56 357.48 1106.75 357.622 1106.98 357.674C1107.21 357.727 1107.45 357.686 1107.65 357.561L1111.2 355.236C1111.3 355.167 1111.39 355.079 1111.46 354.975C1111.53 354.871 1111.57 354.755 1111.6 354.632C1111.62 354.509 1111.62 354.383 1111.6 354.26C1111.57 354.138 1111.52 354.021 1111.46 353.918Z" fill="black"/>
<path opacity="0.1" d="M1105.31 358.982L1102.48 354.784C1102.45 354.737 1102.41 354.697 1102.37 354.666C1102.32 354.635 1102.27 354.614 1102.22 354.603C1102.17 354.593 1102.11 354.593 1102.06 354.605C1102.01 354.617 1101.96 354.639 1101.91 354.671L1097.78 357.579C1097.73 357.61 1097.69 357.65 1097.66 357.696C1097.63 357.743 1097.61 357.795 1097.6 357.85C1097.59 357.905 1097.59 357.962 1097.6 358.018C1097.61 358.073 1097.63 358.126 1097.66 358.172L1100.25 362.323C1100.28 362.371 1100.32 362.413 1100.36 362.446C1100.4 362.479 1100.46 362.502 1100.51 362.514C1100.56 362.527 1100.62 362.528 1100.67 362.518C1100.72 362.507 1100.77 362.486 1100.82 362.455L1105.19 359.631C1105.24 359.6 1105.29 359.558 1105.32 359.506C1105.36 359.455 1105.38 359.397 1105.39 359.335C1105.4 359.273 1105.4 359.21 1105.39 359.149C1105.37 359.088 1105.35 359.031 1105.31 358.982Z" fill="black"/>
<path opacity="0.1" d="M1099.61 363.095L1096.78 358.888C1096.72 358.797 1096.62 358.735 1096.52 358.716C1096.41 358.697 1096.3 358.721 1096.21 358.784L1092.09 361.683C1092 361.748 1091.93 361.847 1091.91 361.96C1091.89 362.072 1091.91 362.189 1091.97 362.286L1094.56 366.437C1094.62 366.53 1094.71 366.596 1094.82 366.62C1094.93 366.645 1095.04 366.626 1095.13 366.568L1099.5 363.745C1099.55 363.715 1099.6 363.673 1099.64 363.622C1099.67 363.57 1099.7 363.511 1099.71 363.448C1099.72 363.385 1099.72 363.32 1099.7 363.259C1099.68 363.198 1099.65 363.142 1099.61 363.095Z" fill="black"/>
<path opacity="0.1" d="M1093.23 367.688L1090.41 363.49C1090.34 363.4 1090.25 363.338 1090.14 363.319C1090.04 363.299 1089.93 363.324 1089.84 363.387L1085.7 366.286C1085.66 366.316 1085.62 366.356 1085.59 366.403C1085.56 366.449 1085.54 366.501 1085.52 366.557C1085.51 366.612 1085.51 366.669 1085.52 366.724C1085.53 366.78 1085.56 366.832 1085.59 366.879L1088.18 371.039C1088.24 371.133 1088.33 371.198 1088.44 371.223C1088.54 371.247 1088.65 371.229 1088.75 371.171L1093.12 368.347C1093.17 368.315 1093.21 368.272 1093.25 368.22C1093.28 368.168 1093.31 368.108 1093.32 368.046C1093.33 367.983 1093.33 367.919 1093.31 367.857C1093.3 367.796 1093.27 367.738 1093.23 367.688Z" fill="black"/>
<path opacity="0.1" d="M1087.06 372.15L1084.23 367.952C1084.2 367.905 1084.16 367.865 1084.12 367.834C1084.07 367.803 1084.02 367.782 1083.97 367.771C1083.92 367.761 1083.86 367.761 1083.81 367.773C1083.76 367.785 1083.71 367.807 1083.66 367.839L1079.53 370.71C1079.48 370.74 1079.44 370.78 1079.41 370.826C1079.38 370.873 1079.36 370.925 1079.35 370.981C1079.34 371.036 1079.34 371.093 1079.35 371.148C1079.36 371.203 1079.38 371.256 1079.41 371.303L1082 375.454C1082.06 375.549 1082.15 375.616 1082.26 375.641C1082.37 375.666 1082.48 375.646 1082.57 375.585L1086.94 372.762C1086.99 372.73 1087.03 372.689 1087.06 372.641C1087.09 372.593 1087.11 372.539 1087.12 372.482C1087.13 372.425 1087.13 372.366 1087.12 372.309C1087.11 372.252 1087.09 372.198 1087.06 372.15Z" fill="black"/>
<path opacity="0.1" d="M1126.52 333.615L1124.24 330.236C1124.11 330.042 1123.91 329.91 1123.68 329.866C1123.45 329.822 1123.22 329.871 1123.02 330.001L1119.66 332.373C1119.47 332.512 1119.34 332.721 1119.29 332.958C1119.25 333.194 1119.29 333.44 1119.41 333.644L1121.5 336.985C1121.63 337.183 1121.83 337.321 1122.05 337.372C1122.28 337.422 1122.51 337.382 1122.71 337.258L1126.27 334.933C1126.37 334.865 1126.45 334.776 1126.52 334.672C1126.59 334.569 1126.63 334.452 1126.66 334.33C1126.68 334.207 1126.68 334.08 1126.66 333.958C1126.63 333.835 1126.59 333.719 1126.52 333.615Z" fill="black"/>
<path opacity="0.1" d="M1120.08 338.265L1117.8 334.877C1117.67 334.68 1117.46 334.546 1117.24 334.502C1117.01 334.458 1116.77 334.508 1116.58 334.641L1113.22 337.013C1113.03 337.151 1112.89 337.359 1112.85 337.596C1112.8 337.832 1112.84 338.079 1112.96 338.284L1115.05 341.625C1115.18 341.827 1115.38 341.969 1115.61 342.022C1115.83 342.074 1116.07 342.033 1116.27 341.908L1119.83 339.573C1119.93 339.505 1120.01 339.417 1120.08 339.314C1120.15 339.211 1120.19 339.096 1120.21 338.974C1120.24 338.852 1120.24 338.727 1120.22 338.606C1120.19 338.484 1120.15 338.368 1120.08 338.265Z" fill="black"/>
<path opacity="0.1" d="M1113.66 342.905L1111.38 339.526C1111.25 339.33 1111.04 339.196 1110.82 339.152C1110.59 339.108 1110.35 339.158 1110.16 339.291L1106.79 341.654C1106.6 341.792 1106.47 342.002 1106.42 342.238C1106.38 342.475 1106.42 342.72 1106.54 342.924L1108.63 346.266C1108.76 346.467 1108.96 346.609 1109.19 346.662C1109.41 346.714 1109.65 346.674 1109.85 346.548L1113.4 344.214C1113.5 344.146 1113.58 344.058 1113.65 343.956C1113.72 343.853 1113.77 343.738 1113.79 343.616C1113.81 343.495 1113.82 343.369 1113.79 343.247C1113.77 343.125 1113.73 343.009 1113.66 342.905Z" fill="black"/>
<path opacity="0.1" d="M1107.22 347.546L1104.95 344.167C1104.81 343.973 1104.61 343.84 1104.38 343.796C1104.15 343.753 1103.92 343.801 1103.73 343.931L1100.36 346.294C1100.17 346.433 1100.04 346.642 1099.99 346.879C1099.95 347.115 1099.99 347.361 1100.11 347.565L1102.2 350.944C1102.33 351.143 1102.53 351.283 1102.75 351.336C1102.98 351.388 1103.21 351.349 1103.41 351.226L1106.97 348.901C1107.07 348.833 1107.17 348.742 1107.24 348.636C1107.31 348.529 1107.36 348.408 1107.38 348.281C1107.4 348.154 1107.4 348.023 1107.37 347.896C1107.35 347.77 1107.3 347.65 1107.22 347.546Z" fill="black"/>
<path opacity="0.1" d="M1101.12 352.61L1098.29 348.412C1098.26 348.365 1098.22 348.325 1098.18 348.294C1098.13 348.263 1098.08 348.242 1098.03 348.231C1097.98 348.221 1097.92 348.221 1097.87 348.233C1097.82 348.244 1097.77 348.267 1097.72 348.299L1093.59 351.207C1093.5 351.27 1093.43 351.368 1093.41 351.479C1093.39 351.59 1093.41 351.705 1093.47 351.8L1096.06 355.96C1096.09 356.008 1096.13 356.049 1096.17 356.081C1096.22 356.113 1096.27 356.135 1096.32 356.146C1096.37 356.158 1096.43 356.158 1096.48 356.147C1096.53 356.136 1096.58 356.114 1096.63 356.083L1101 353.259C1101.05 353.228 1101.1 353.185 1101.13 353.134C1101.17 353.083 1101.19 353.025 1101.2 352.963C1101.21 352.901 1101.21 352.837 1101.2 352.776C1101.18 352.715 1101.16 352.658 1101.12 352.61Z" fill="black"/>
<path opacity="0.1" d="M1095.38 356.723L1092.56 352.516C1092.49 352.424 1092.4 352.362 1092.29 352.343C1092.18 352.324 1092.07 352.348 1091.98 352.412L1087.85 355.311C1087.76 355.376 1087.7 355.475 1087.68 355.587C1087.65 355.7 1087.68 355.817 1087.73 355.913L1090.33 360.064C1090.39 360.16 1090.48 360.227 1090.58 360.252C1090.69 360.276 1090.8 360.256 1090.9 360.196L1095.27 357.372C1095.32 357.341 1095.36 357.299 1095.4 357.247C1095.43 357.196 1095.46 357.138 1095.47 357.076C1095.48 357.014 1095.48 356.951 1095.46 356.89C1095.45 356.829 1095.42 356.772 1095.38 356.723Z" fill="black"/>
<path opacity="0.1" d="M1089.01 361.297L1086.18 357.09C1086.12 356.999 1086.02 356.937 1085.91 356.917C1085.8 356.898 1085.69 356.923 1085.6 356.986L1081.47 359.885C1081.38 359.952 1081.32 360.051 1081.3 360.163C1081.27 360.274 1081.29 360.391 1081.35 360.488L1083.95 364.639C1084.01 364.734 1084.1 364.801 1084.21 364.826C1084.32 364.851 1084.43 364.831 1084.52 364.771L1088.88 361.947C1088.94 361.918 1088.98 361.876 1089.02 361.826C1089.06 361.775 1089.08 361.716 1089.09 361.654C1089.11 361.591 1089.11 361.527 1089.09 361.465C1089.08 361.404 1089.05 361.346 1089.01 361.297Z" fill="black"/>
<path opacity="0.1" d="M1082.83 365.778L1080 361.58C1079.97 361.533 1079.93 361.492 1079.89 361.461C1079.84 361.43 1079.79 361.409 1079.74 361.398C1079.68 361.388 1079.63 361.388 1079.58 361.4C1079.52 361.412 1079.47 361.435 1079.43 361.467L1075.29 364.375C1075.2 364.44 1075.14 364.538 1075.12 364.649C1075.1 364.759 1075.12 364.874 1075.18 364.968L1077.77 369.119C1077.8 369.168 1077.84 369.211 1077.88 369.245C1077.93 369.278 1077.98 369.302 1078.03 369.314C1078.08 369.327 1078.14 369.328 1078.19 369.317C1078.25 369.306 1078.3 369.283 1078.34 369.251L1082.7 366.427C1082.76 366.398 1082.81 366.357 1082.84 366.306C1082.88 366.255 1082.91 366.197 1082.92 366.134C1082.93 366.072 1082.93 366.007 1082.91 365.946C1082.9 365.884 1082.87 365.826 1082.83 365.778Z" fill="black"/>
<path opacity="0.1" d="M1080.88 376.602L1078.05 372.404C1077.99 372.313 1077.9 372.252 1077.79 372.232C1077.68 372.213 1077.57 372.237 1077.49 372.3L1073.35 375.199C1073.3 375.23 1073.26 375.27 1073.23 375.316C1073.2 375.363 1073.18 375.415 1073.17 375.47C1073.16 375.525 1073.16 375.582 1073.17 375.638C1073.18 375.693 1073.2 375.746 1073.23 375.792L1075.82 379.953C1075.88 380.046 1075.98 380.112 1076.08 380.137C1076.19 380.161 1076.3 380.142 1076.39 380.085L1080.76 377.261C1080.82 377.229 1080.86 377.185 1080.9 377.133C1080.93 377.081 1080.96 377.022 1080.97 376.959C1080.98 376.897 1080.98 376.833 1080.96 376.771C1080.95 376.709 1080.92 376.652 1080.88 376.602Z" fill="black"/>
<path opacity="0.1" d="M1074.7 381.063L1071.88 376.866C1071.85 376.819 1071.81 376.779 1071.76 376.748C1071.72 376.717 1071.67 376.695 1071.62 376.685C1071.56 376.674 1071.51 376.675 1071.46 376.687C1071.4 376.698 1071.35 376.721 1071.31 376.753L1067.17 379.661C1067.13 379.692 1067.09 379.731 1067.06 379.778C1067.03 379.824 1067.01 379.877 1066.99 379.932C1066.98 379.987 1066.98 380.044 1066.99 380.099C1067 380.155 1067.03 380.207 1067.06 380.254L1069.65 384.405C1069.71 384.5 1069.8 384.568 1069.91 384.592C1070.01 384.617 1070.12 384.597 1070.22 384.537L1074.59 381.713C1074.64 381.682 1074.68 381.639 1074.72 381.588C1074.75 381.537 1074.78 381.478 1074.79 381.417C1074.8 381.355 1074.8 381.291 1074.78 381.23C1074.77 381.169 1074.74 381.112 1074.7 381.063Z" fill="black"/>
<path opacity="0.1" d="M1084.4 354.389L1081.69 350.435C1081.61 350.312 1081.48 350.229 1081.34 350.203C1081.19 350.176 1081.05 350.209 1080.93 350.294L1077.02 353.033C1076.96 353.075 1076.91 353.129 1076.87 353.192C1076.83 353.255 1076.8 353.325 1076.79 353.4C1076.77 353.474 1076.77 353.551 1076.79 353.625C1076.8 353.7 1076.83 353.77 1076.87 353.833L1079.31 357.739C1079.35 357.804 1079.4 357.86 1079.46 357.904C1079.51 357.948 1079.58 357.979 1079.65 357.996C1079.72 358.013 1079.8 358.014 1079.87 358.001C1079.94 357.988 1080.01 357.96 1080.07 357.918L1084.19 355.217C1084.26 355.179 1084.32 355.127 1084.37 355.064C1084.42 355 1084.45 354.928 1084.47 354.85C1084.49 354.772 1084.5 354.691 1084.48 354.612C1084.47 354.532 1084.44 354.456 1084.4 354.389Z" fill="black"/>
<path opacity="0.1" d="M1078.23 358.85L1075.56 354.897C1075.52 354.834 1075.47 354.781 1075.41 354.739C1075.35 354.698 1075.28 354.669 1075.21 354.655C1075.14 354.641 1075.06 354.642 1074.99 354.658C1074.92 354.673 1074.85 354.703 1074.79 354.746L1070.89 357.532C1070.83 357.573 1070.78 357.626 1070.74 357.688C1070.7 357.75 1070.67 357.82 1070.66 357.894C1070.64 357.968 1070.64 358.044 1070.66 358.117C1070.67 358.191 1070.7 358.261 1070.74 358.323L1073.18 362.239C1073.26 362.365 1073.38 362.454 1073.52 362.488C1073.66 362.521 1073.81 362.496 1073.94 362.417L1078.06 359.716C1078.13 359.674 1078.19 359.618 1078.24 359.55C1078.29 359.482 1078.32 359.404 1078.33 359.322C1078.35 359.24 1078.35 359.155 1078.33 359.074C1078.31 358.992 1078.28 358.916 1078.23 358.85Z" fill="black"/>
<path opacity="0.1" d="M1072.05 363.312L1069.39 359.349C1069.3 359.226 1069.17 359.143 1069.03 359.116C1068.89 359.09 1068.74 359.123 1068.62 359.208L1064.72 361.947C1064.66 361.989 1064.6 362.042 1064.56 362.105C1064.52 362.168 1064.49 362.239 1064.48 362.313C1064.47 362.388 1064.47 362.464 1064.48 362.539C1064.49 362.613 1064.52 362.684 1064.56 362.747L1067 366.653C1067.04 366.718 1067.09 366.774 1067.15 366.818C1067.21 366.862 1067.27 366.893 1067.34 366.91C1067.42 366.926 1067.49 366.928 1067.56 366.915C1067.63 366.901 1067.7 366.873 1067.76 366.832L1071.89 364.13C1071.95 364.089 1072.01 364.035 1072.05 363.971C1072.09 363.907 1072.12 363.834 1072.14 363.758C1072.15 363.681 1072.15 363.602 1072.14 363.525C1072.12 363.448 1072.09 363.376 1072.05 363.312Z" fill="black"/>
<path opacity="0.1" d="M1065.95 367.886L1063.13 363.679C1063.06 363.588 1062.97 363.526 1062.86 363.507C1062.76 363.488 1062.65 363.512 1062.56 363.575L1058.42 366.474C1058.33 366.539 1058.27 366.638 1058.25 366.751C1058.23 366.863 1058.25 366.98 1058.31 367.077L1060.9 371.227C1060.96 371.321 1061.05 371.387 1061.16 371.411C1061.26 371.436 1061.37 371.417 1061.47 371.359L1065.84 368.535C1065.89 368.507 1065.94 368.466 1065.98 368.415C1066.01 368.363 1066.04 368.304 1066.05 368.241C1066.06 368.178 1066.06 368.113 1066.04 368.052C1066.03 367.99 1066 367.933 1065.95 367.886Z" fill="black"/>
<path opacity="0.1" d="M1139.04 324.448L1136.6 320.824C1136.46 320.629 1136.25 320.496 1136.03 320.454C1135.8 320.412 1135.56 320.464 1135.37 320.598L1125.81 327.573C1125.63 327.713 1125.5 327.921 1125.46 328.155C1125.41 328.389 1125.46 328.632 1125.58 328.834L1127.88 332.542C1127.95 332.645 1128.03 332.733 1128.13 332.801C1128.23 332.87 1128.34 332.917 1128.46 332.941C1128.58 332.964 1128.7 332.964 1128.81 332.939C1128.93 332.914 1129.04 332.866 1129.14 332.796L1138.84 325.728C1139.02 325.583 1139.15 325.369 1139.19 325.131C1139.22 324.893 1139.17 324.648 1139.04 324.448Z" fill="black"/>
<path opacity="0.1" d="M1076.64 370.098L1073.64 365.684C1073.61 365.636 1073.57 365.596 1073.52 365.565C1073.48 365.534 1073.42 365.513 1073.37 365.503C1073.32 365.494 1073.26 365.495 1073.21 365.509C1073.15 365.522 1073.1 365.546 1073.06 365.58L1062.75 373.11C1062.66 373.173 1062.6 373.269 1062.58 373.379C1062.56 373.488 1062.58 373.601 1062.64 373.694L1065.46 378.24C1065.49 378.289 1065.53 378.331 1065.57 378.364C1065.62 378.397 1065.67 378.42 1065.73 378.431C1065.78 378.442 1065.84 378.442 1065.89 378.43C1065.95 378.419 1066 378.395 1066.04 378.362L1076.53 370.71C1076.62 370.643 1076.68 370.542 1076.7 370.427C1076.72 370.313 1076.7 370.194 1076.64 370.098Z" fill="black"/>
<path opacity="0.1" d="M1109.44 336.336L1106.68 332.119C1106.62 332.026 1106.52 331.963 1106.42 331.942C1106.31 331.921 1106.2 331.944 1106.11 332.006L1083.21 348.12C1083.12 348.183 1083.06 348.281 1083.04 348.391C1083.01 348.502 1083.03 348.618 1083.09 348.713L1085.92 353.231C1085.95 353.28 1085.99 353.322 1086.03 353.355C1086.08 353.388 1086.13 353.411 1086.19 353.422C1086.24 353.434 1086.3 353.433 1086.35 353.422C1086.41 353.41 1086.46 353.386 1086.51 353.353L1109.33 336.938C1109.38 336.906 1109.42 336.865 1109.45 336.817C1109.48 336.769 1109.5 336.716 1109.51 336.66C1109.52 336.604 1109.52 336.547 1109.51 336.491C1109.5 336.435 1109.47 336.383 1109.44 336.336Z" fill="black"/>
</g>
<path d="M1147.84 337.277L1145.56 333.888C1145.43 333.692 1145.22 333.558 1144.99 333.514C1144.77 333.47 1144.53 333.52 1144.34 333.653L1140.98 336.025C1140.79 336.162 1140.65 336.371 1140.61 336.608C1140.56 336.844 1140.6 337.09 1140.72 337.296L1142.81 340.637C1142.94 340.839 1143.14 340.981 1143.36 341.033C1143.59 341.086 1143.83 341.045 1144.03 340.919L1147.59 338.585C1147.69 338.517 1147.77 338.429 1147.84 338.326C1147.9 338.223 1147.95 338.107 1147.97 337.986C1148 337.864 1148 337.739 1147.97 337.617C1147.95 337.496 1147.9 337.38 1147.84 337.277Z" fill="#464A5F"/>
<path d="M1141.75 341.644L1139.48 338.265C1139.34 338.071 1139.14 337.939 1138.91 337.895C1138.69 337.851 1138.45 337.899 1138.26 338.03L1134.89 340.392C1134.7 340.53 1134.57 340.738 1134.52 340.975C1134.47 341.211 1134.51 341.458 1134.64 341.663L1136.72 345.004C1136.85 345.206 1137.05 345.348 1137.28 345.401C1137.51 345.453 1137.74 345.412 1137.94 345.287L1141.5 342.962C1141.6 342.893 1141.69 342.805 1141.75 342.701C1141.82 342.598 1141.87 342.481 1141.89 342.358C1141.91 342.236 1141.91 342.109 1141.89 341.987C1141.87 341.864 1141.82 341.748 1141.75 341.644Z" fill="#464A5F"/>
<path d="M1135.43 346.237L1133.16 342.858C1133.02 342.662 1132.82 342.528 1132.59 342.484C1132.36 342.44 1132.12 342.49 1131.93 342.623L1128.57 344.995C1128.38 345.132 1128.25 345.341 1128.2 345.578C1128.15 345.814 1128.19 346.06 1128.32 346.266L1130.4 349.607C1130.53 349.807 1130.73 349.947 1130.96 349.998C1131.19 350.049 1131.42 350.007 1131.62 349.88L1135.18 347.555C1135.28 347.487 1135.37 347.398 1135.43 347.294C1135.5 347.191 1135.55 347.074 1135.57 346.952C1135.59 346.829 1135.59 346.703 1135.57 346.58C1135.55 346.457 1135.5 346.341 1135.43 346.237Z" fill="#464A5F"/>
<path d="M1128.98 350.878L1126.71 347.489C1126.57 347.295 1126.37 347.163 1126.14 347.119C1125.92 347.075 1125.68 347.124 1125.49 347.254L1122.12 349.626C1122.02 349.696 1121.94 349.785 1121.87 349.89C1121.81 349.994 1121.76 350.111 1121.74 350.234C1121.72 350.356 1121.72 350.482 1121.74 350.604C1121.77 350.726 1121.82 350.841 1121.89 350.944L1123.97 354.285C1124.1 354.487 1124.3 354.629 1124.53 354.681C1124.75 354.734 1124.99 354.693 1125.19 354.567L1128.74 352.233C1128.85 352.164 1128.94 352.073 1129.01 351.966C1129.07 351.859 1129.12 351.738 1129.15 351.611C1129.17 351.484 1129.17 351.353 1129.14 351.227C1129.11 351.101 1129.06 350.982 1128.98 350.878Z" fill="#464A5F"/>
<path d="M1122.55 355.518L1120.28 352.139C1120.14 351.945 1119.94 351.813 1119.71 351.769C1119.49 351.725 1119.25 351.773 1119.06 351.904L1115.69 354.266C1115.5 354.405 1115.37 354.614 1115.33 354.851C1115.28 355.087 1115.32 355.333 1115.45 355.537L1117.52 358.878C1117.65 359.08 1117.85 359.222 1118.08 359.275C1118.31 359.327 1118.54 359.286 1118.74 359.161L1122.3 356.826C1122.4 356.758 1122.49 356.67 1122.55 356.567C1122.62 356.464 1122.67 356.349 1122.69 356.227C1122.71 356.105 1122.71 355.98 1122.69 355.859C1122.67 355.737 1122.62 355.621 1122.55 355.518Z" fill="#464A5F"/>
<path d="M1116.4 360.582L1113.58 356.384C1113.55 356.337 1113.51 356.297 1113.46 356.266C1113.42 356.235 1113.37 356.214 1113.32 356.203C1113.26 356.193 1113.21 356.193 1113.16 356.205C1113.1 356.217 1113.05 356.239 1113.01 356.271L1108.87 359.18C1108.83 359.21 1108.79 359.25 1108.76 359.296C1108.73 359.343 1108.71 359.395 1108.7 359.45C1108.68 359.506 1108.68 359.562 1108.69 359.618C1108.71 359.673 1108.73 359.726 1108.76 359.773L1111.35 363.923C1111.41 364.019 1111.5 364.086 1111.61 364.111C1111.71 364.135 1111.82 364.115 1111.92 364.055L1116.29 361.231C1116.34 361.2 1116.39 361.158 1116.42 361.107C1116.46 361.055 1116.48 360.997 1116.49 360.935C1116.5 360.873 1116.5 360.81 1116.49 360.749C1116.47 360.688 1116.44 360.631 1116.4 360.582Z" fill="#464A5F"/>
<path d="M1109.98 365.222L1107.15 361.024C1107.12 360.977 1107.08 360.937 1107.03 360.906C1106.99 360.875 1106.94 360.853 1106.88 360.843C1106.83 360.832 1106.77 360.833 1106.72 360.845C1106.67 360.857 1106.62 360.879 1106.57 360.911L1102.44 363.82C1102.4 363.85 1102.36 363.89 1102.33 363.937C1102.3 363.983 1102.28 364.035 1102.27 364.091C1102.26 364.146 1102.26 364.203 1102.27 364.258C1102.28 364.313 1102.3 364.366 1102.33 364.413L1104.92 368.573C1104.95 368.621 1104.99 368.661 1105.03 368.693C1105.08 368.725 1105.13 368.748 1105.18 368.759C1105.23 368.77 1105.29 368.771 1105.34 368.76C1105.39 368.749 1105.44 368.727 1105.49 368.696L1109.86 365.872C1109.91 365.84 1109.95 365.797 1109.99 365.745C1110.02 365.694 1110.05 365.636 1110.06 365.575C1110.07 365.513 1110.07 365.45 1110.05 365.389C1110.04 365.329 1110.01 365.272 1109.98 365.222Z" fill="#464A5F"/>
<path d="M1104.28 369.336L1101.45 365.128C1101.39 365.037 1101.29 364.976 1101.19 364.956C1101.08 364.937 1100.97 364.962 1100.88 365.025L1096.75 367.886C1096.66 367.951 1096.59 368.05 1096.57 368.163C1096.55 368.275 1096.57 368.392 1096.63 368.488L1099.22 372.639C1099.28 372.733 1099.37 372.799 1099.48 372.823C1099.59 372.848 1099.7 372.829 1099.79 372.771L1104.16 369.947C1104.21 369.916 1104.25 369.875 1104.28 369.827C1104.31 369.779 1104.33 369.725 1104.34 369.668C1104.35 369.61 1104.35 369.552 1104.34 369.494C1104.33 369.437 1104.31 369.383 1104.28 369.336Z" fill="#464A5F"/>
<path d="M1097.9 373.938L1095.08 369.769C1095.01 369.678 1094.92 369.616 1094.81 369.597C1094.71 369.578 1094.6 369.602 1094.51 369.665L1090.37 372.564C1090.33 372.595 1090.29 372.636 1090.26 372.683C1090.22 372.731 1090.2 372.784 1090.19 372.84C1090.18 372.896 1090.18 372.953 1090.19 373.01C1090.2 373.066 1090.22 373.119 1090.25 373.166L1092.85 377.317C1092.91 377.411 1093 377.477 1093.1 377.501C1093.21 377.526 1093.32 377.507 1093.41 377.449L1097.78 374.625C1097.84 374.595 1097.89 374.551 1097.93 374.497C1097.97 374.443 1098 374.38 1098.01 374.313C1098.02 374.246 1098.02 374.177 1098 374.112C1097.98 374.047 1097.95 373.987 1097.9 373.938Z" fill="#464A5F"/>
<path d="M1091.73 378.39L1088.9 374.192C1088.87 374.146 1088.83 374.106 1088.79 374.075C1088.74 374.044 1088.69 374.022 1088.64 374.012C1088.58 374.001 1088.53 374.002 1088.48 374.013C1088.42 374.025 1088.37 374.047 1088.33 374.079L1084.19 376.988C1084.15 377.018 1084.11 377.058 1084.08 377.105C1084.05 377.151 1084.03 377.203 1084.02 377.259C1084.01 377.314 1084.01 377.371 1084.02 377.426C1084.03 377.482 1084.05 377.534 1084.08 377.581L1086.67 381.732C1086.7 381.78 1086.73 381.822 1086.78 381.855C1086.82 381.887 1086.87 381.911 1086.93 381.923C1086.98 381.935 1087.03 381.936 1087.09 381.926C1087.14 381.916 1087.19 381.895 1087.24 381.864L1091.61 379.04C1091.66 379.009 1091.71 378.966 1091.74 378.915C1091.78 378.864 1091.8 378.805 1091.81 378.743C1091.82 378.682 1091.82 378.618 1091.81 378.557C1091.79 378.496 1091.76 378.439 1091.73 378.39Z" fill="#464A5F"/>
<path d="M1085.55 382.852L1082.72 378.644C1082.66 378.554 1082.56 378.492 1082.46 378.473C1082.35 378.453 1082.24 378.478 1082.15 378.541L1078.02 381.44C1077.93 381.505 1077.86 381.604 1077.84 381.716C1077.82 381.829 1077.84 381.946 1077.9 382.042L1080.49 386.193C1080.55 386.287 1080.65 386.353 1080.75 386.377C1080.86 386.402 1080.97 386.383 1081.06 386.325L1085.43 383.501C1085.48 383.47 1085.53 383.428 1085.56 383.376C1085.6 383.325 1085.62 383.267 1085.63 383.205C1085.65 383.143 1085.64 383.079 1085.63 383.019C1085.61 382.958 1085.59 382.901 1085.55 382.852Z" fill="#464A5F"/>
<path d="M1079.37 387.304L1076.55 383.106C1076.52 383.059 1076.48 383.019 1076.43 382.988C1076.39 382.957 1076.34 382.936 1076.28 382.925C1076.23 382.915 1076.18 382.915 1076.12 382.927C1076.07 382.939 1076.02 382.961 1075.98 382.993L1071.84 385.901C1071.8 385.932 1071.76 385.972 1071.73 386.018C1071.7 386.065 1071.67 386.117 1071.66 386.172C1071.65 386.227 1071.65 386.284 1071.66 386.34C1071.67 386.395 1071.69 386.448 1071.72 386.494L1074.32 390.645C1074.34 390.694 1074.38 390.735 1074.43 390.768C1074.47 390.801 1074.52 390.824 1074.57 390.836C1074.63 390.849 1074.68 390.85 1074.73 390.84C1074.79 390.829 1074.84 390.808 1074.88 390.777L1079.26 387.953C1079.31 387.922 1079.35 387.88 1079.39 387.829C1079.42 387.777 1079.45 387.719 1079.46 387.657C1079.47 387.595 1079.47 387.532 1079.45 387.471C1079.44 387.41 1079.41 387.353 1079.37 387.304Z" fill="#464A5F"/>
<path d="M1143.77 331.177L1141.49 327.789C1141.35 327.595 1141.15 327.463 1140.93 327.419C1140.7 327.375 1140.47 327.423 1140.27 327.554L1136.9 329.926C1136.71 330.065 1136.58 330.274 1136.54 330.51C1136.49 330.747 1136.54 330.992 1136.66 331.196L1138.74 334.538C1138.87 334.739 1139.06 334.881 1139.29 334.934C1139.52 334.987 1139.76 334.946 1139.96 334.82L1143.51 332.486C1143.61 332.417 1143.7 332.329 1143.76 332.226C1143.83 332.124 1143.88 332.008 1143.9 331.886C1143.92 331.765 1143.92 331.64 1143.9 331.518C1143.88 331.396 1143.83 331.281 1143.77 331.177Z" fill="#464A5F"/>
<path d="M1134.87 317.755L1132.6 314.376C1132.46 314.182 1132.26 314.05 1132.03 314.006C1131.8 313.962 1131.57 314.011 1131.38 314.141L1128.01 316.504C1127.82 316.642 1127.69 316.852 1127.64 317.088C1127.6 317.325 1127.64 317.57 1127.76 317.774L1129.85 321.116C1129.98 321.315 1130.18 321.455 1130.4 321.508C1130.63 321.56 1130.86 321.521 1131.06 321.398L1134.62 319.073C1134.72 319.005 1134.81 318.916 1134.87 318.812C1134.94 318.709 1134.99 318.592 1135.01 318.47C1135.03 318.347 1135.03 318.22 1135.01 318.098C1134.99 317.975 1134.94 317.859 1134.87 317.755Z" fill="#464A5F"/>
<path d="M1137.71 335.517L1135.43 332.119C1135.3 331.925 1135.09 331.792 1134.87 331.749C1134.64 331.705 1134.41 331.753 1134.21 331.883L1130.84 334.246C1130.65 334.385 1130.52 334.594 1130.48 334.831C1130.43 335.067 1130.48 335.313 1130.6 335.517L1132.69 338.858C1132.82 339.057 1133.01 339.197 1133.24 339.25C1133.46 339.302 1133.7 339.263 1133.9 339.14L1137.45 336.816C1137.65 336.678 1137.79 336.464 1137.84 336.22C1137.88 335.977 1137.84 335.724 1137.71 335.517Z" fill="#464A5F"/>
<path d="M1131.35 340.1L1129.11 336.721C1128.97 336.527 1128.77 336.395 1128.55 336.351C1128.32 336.307 1128.08 336.356 1127.89 336.486L1124.52 338.849C1124.33 338.988 1124.2 339.199 1124.15 339.437C1124.11 339.676 1124.15 339.924 1124.28 340.129L1126.36 343.47C1126.49 343.67 1126.69 343.81 1126.91 343.861C1127.14 343.912 1127.38 343.87 1127.58 343.743L1131.13 341.418C1131.23 341.347 1131.31 341.256 1131.38 341.151C1131.44 341.046 1131.48 340.929 1131.5 340.806C1131.53 340.684 1131.52 340.558 1131.5 340.437C1131.47 340.316 1131.42 340.202 1131.35 340.1Z" fill="#464A5F"/>
<path d="M1124.92 344.75L1122.64 341.362C1122.51 341.165 1122.3 341.031 1122.08 340.987C1121.85 340.943 1121.61 340.993 1121.42 341.126L1118.06 343.498C1117.87 343.636 1117.73 343.845 1117.69 344.081C1117.64 344.318 1117.68 344.564 1117.8 344.769L1119.89 348.111C1120.02 348.312 1120.22 348.454 1120.45 348.507C1120.67 348.559 1120.91 348.519 1121.11 348.393L1124.67 346.059C1124.77 345.99 1124.85 345.902 1124.92 345.799C1124.98 345.696 1125.03 345.581 1125.05 345.459C1125.08 345.338 1125.08 345.212 1125.06 345.091C1125.03 344.969 1124.99 344.853 1124.92 344.75Z" fill="#464A5F"/>
<path d="M1128.96 322.339L1126.68 318.941C1126.55 318.747 1126.34 318.615 1126.12 318.571C1125.89 318.527 1125.66 318.576 1125.46 318.706L1122.09 321.069C1121.9 321.207 1121.77 321.417 1121.73 321.653C1121.68 321.89 1121.73 322.135 1121.85 322.339L1123.94 325.681C1124.07 325.88 1124.26 326.02 1124.49 326.073C1124.71 326.125 1124.95 326.086 1125.15 325.963L1128.7 323.638C1128.9 323.5 1129.04 323.286 1129.09 323.043C1129.13 322.8 1129.09 322.547 1128.96 322.339Z" fill="#464A5F"/>
<path d="M1122.6 326.932L1120.32 323.544C1120.19 323.35 1119.99 323.218 1119.76 323.174C1119.53 323.13 1119.3 323.178 1119.11 323.309L1115.74 325.681C1115.55 325.818 1115.41 326.027 1115.37 326.263C1115.32 326.5 1115.36 326.746 1115.48 326.951L1117.57 330.293C1117.7 330.494 1117.9 330.636 1118.13 330.689C1118.35 330.742 1118.59 330.701 1118.79 330.575L1122.35 328.241C1122.45 328.172 1122.53 328.084 1122.6 327.981C1122.66 327.879 1122.71 327.763 1122.73 327.641C1122.76 327.52 1122.76 327.395 1122.73 327.273C1122.71 327.151 1122.67 327.036 1122.6 326.932Z" fill="#464A5F"/>
<path d="M1116.17 331.573L1113.89 328.194C1113.76 327.997 1113.55 327.863 1113.33 327.819C1113.1 327.775 1112.86 327.825 1112.67 327.958L1109.31 330.321C1109.12 330.458 1108.98 330.667 1108.94 330.904C1108.89 331.14 1108.93 331.386 1109.05 331.592L1111.14 334.942C1111.27 335.144 1111.47 335.286 1111.7 335.339C1111.92 335.391 1112.16 335.351 1112.36 335.225L1115.91 332.891C1116.01 332.823 1116.1 332.735 1116.16 332.632C1116.23 332.528 1116.28 332.412 1116.31 332.289C1116.33 332.166 1116.33 332.04 1116.31 331.917C1116.28 331.794 1116.24 331.677 1116.17 331.573Z" fill="#464A5F"/>
<path d="M1118.48 349.391L1116.21 346.012C1116.07 345.818 1115.87 345.685 1115.64 345.641C1115.41 345.598 1115.18 345.646 1114.99 345.776L1111.62 348.12C1111.43 348.259 1111.3 348.468 1111.25 348.705C1111.21 348.941 1111.25 349.187 1111.38 349.391L1113.46 352.732C1113.59 352.931 1113.79 353.071 1114.01 353.124C1114.24 353.176 1114.47 353.137 1114.67 353.014L1118.23 350.68C1118.42 350.542 1118.56 350.33 1118.61 350.089C1118.65 349.848 1118.61 349.597 1118.48 349.391Z" fill="#464A5F"/>
<path d="M1112.05 354.031L1109.78 350.652C1109.64 350.458 1109.44 350.325 1109.21 350.282C1108.99 350.238 1108.75 350.286 1108.56 350.417L1105.19 352.826C1105 352.964 1104.87 353.172 1104.82 353.409C1104.77 353.645 1104.81 353.892 1104.94 354.097L1107.02 357.438C1107.15 357.64 1107.35 357.782 1107.58 357.834C1107.81 357.887 1108.04 357.846 1108.24 357.721L1111.8 355.396C1111.91 355.327 1112 355.237 1112.07 355.129C1112.14 355.022 1112.19 354.9 1112.21 354.771C1112.24 354.643 1112.24 354.511 1112.21 354.383C1112.18 354.256 1112.13 354.136 1112.05 354.031Z" fill="#464A5F"/>
<path d="M1105.9 359.095L1103.08 354.897C1103.05 354.85 1103.01 354.81 1102.96 354.779C1102.92 354.748 1102.87 354.727 1102.81 354.716C1102.76 354.706 1102.71 354.706 1102.65 354.718C1102.6 354.73 1102.55 354.752 1102.51 354.784L1098.41 357.692C1098.36 357.723 1098.32 357.763 1098.29 357.809C1098.26 357.855 1098.24 357.908 1098.23 357.963C1098.22 358.018 1098.22 358.075 1098.23 358.131C1098.24 358.186 1098.26 358.239 1098.29 358.285L1100.88 362.436C1100.91 362.484 1100.95 362.526 1100.99 362.559C1101.04 362.592 1101.09 362.615 1101.14 362.627C1101.19 362.64 1101.25 362.641 1101.3 362.631C1101.35 362.62 1101.41 362.599 1101.45 362.568L1105.82 359.744C1105.87 359.709 1105.91 359.664 1105.94 359.611C1105.97 359.558 1105.99 359.499 1106 359.438C1106.01 359.377 1106 359.315 1105.99 359.256C1105.97 359.197 1105.94 359.142 1105.9 359.095Z" fill="#464A5F"/>
<path d="M1100.21 363.18L1097.39 358.972C1097.32 358.881 1097.23 358.819 1097.12 358.8C1097.01 358.781 1096.9 358.805 1096.81 358.869L1092.67 361.768C1092.59 361.834 1092.52 361.933 1092.5 362.045C1092.48 362.157 1092.5 362.273 1092.56 362.37L1095.16 366.521C1095.22 366.617 1095.31 366.684 1095.42 366.709C1095.52 366.733 1095.63 366.713 1095.73 366.653L1100.09 363.829C1100.14 363.8 1100.19 363.759 1100.23 363.708C1100.26 363.657 1100.29 363.599 1100.3 363.536C1100.31 363.474 1100.31 363.409 1100.3 363.348C1100.28 363.286 1100.25 363.229 1100.21 363.18Z" fill="#464A5F"/>
<path d="M1093.83 367.811L1091 363.603C1090.94 363.513 1090.85 363.451 1090.74 363.432C1090.63 363.412 1090.52 363.437 1090.43 363.5L1086.3 366.399C1086.21 366.464 1086.15 366.563 1086.12 366.675C1086.1 366.788 1086.12 366.905 1086.18 367.001L1088.77 371.152C1088.83 371.246 1088.93 371.311 1089.03 371.336C1089.14 371.36 1089.25 371.342 1089.34 371.284L1093.71 368.46C1093.77 368.432 1093.82 368.39 1093.85 368.339C1093.89 368.288 1093.91 368.229 1093.93 368.166C1093.94 368.103 1093.93 368.038 1093.92 367.976C1093.9 367.915 1093.87 367.858 1093.83 367.811Z" fill="#464A5F"/>
<path d="M1087.66 372.263L1084.86 368.065C1084.83 368.018 1084.79 367.978 1084.75 367.947C1084.7 367.916 1084.65 367.895 1084.6 367.884C1084.55 367.874 1084.49 367.874 1084.44 367.886C1084.39 367.898 1084.34 367.92 1084.29 367.952L1080.16 370.86C1080.07 370.924 1080.01 371.021 1079.98 371.132C1079.96 371.243 1079.98 371.358 1080.04 371.453L1082.63 375.604C1082.69 375.7 1082.78 375.767 1082.89 375.792C1083 375.816 1083.11 375.796 1083.2 375.736L1087.57 372.912C1087.62 372.88 1087.67 372.836 1087.7 372.784C1087.73 372.731 1087.76 372.672 1087.76 372.61C1087.77 372.548 1087.77 372.484 1087.75 372.424C1087.73 372.364 1087.7 372.309 1087.66 372.263Z" fill="#464A5F"/>
<path d="M1127.11 333.738L1124.85 330.349C1124.71 330.153 1124.51 330.018 1124.28 329.975C1124.05 329.931 1123.81 329.981 1123.62 330.114L1120.25 332.486C1120.06 332.625 1119.93 332.834 1119.89 333.07C1119.84 333.307 1119.88 333.552 1120.01 333.757L1122.09 337.098C1122.22 337.298 1122.42 337.438 1122.65 337.489C1122.88 337.54 1123.12 337.497 1123.31 337.371L1126.86 335.046C1126.96 334.978 1127.05 334.889 1127.11 334.787C1127.18 334.684 1127.23 334.568 1127.25 334.447C1127.27 334.325 1127.27 334.2 1127.25 334.078C1127.23 333.956 1127.18 333.841 1127.11 333.738Z" fill="#464A5F"/>
<path d="M1120.69 338.378L1118.41 334.999C1118.28 334.803 1118.07 334.669 1117.85 334.624C1117.62 334.578 1117.39 334.625 1117.19 334.754L1113.82 337.126C1113.63 337.265 1113.5 337.474 1113.46 337.711C1113.41 337.947 1113.46 338.193 1113.58 338.397L1115.66 341.738C1115.79 341.937 1115.99 342.078 1116.22 342.13C1116.44 342.183 1116.68 342.143 1116.87 342.021L1120.43 339.686C1120.53 339.618 1120.62 339.53 1120.68 339.427C1120.75 339.324 1120.8 339.209 1120.82 339.087C1120.84 338.965 1120.84 338.84 1120.82 338.718C1120.8 338.597 1120.75 338.481 1120.69 338.378Z" fill="#464A5F"/>
<path d="M1114.26 343.018L1111.95 339.649C1111.82 339.452 1111.61 339.318 1111.38 339.274C1111.16 339.23 1110.92 339.28 1110.73 339.413L1107.44 341.767C1107.25 341.904 1107.11 342.113 1107.07 342.349C1107.02 342.586 1107.06 342.832 1107.19 343.037L1109.27 346.379C1109.4 346.58 1109.6 346.722 1109.83 346.775C1110.05 346.827 1110.29 346.787 1110.49 346.661L1114.05 344.336C1114.15 344.264 1114.23 344.173 1114.29 344.067C1114.35 343.962 1114.4 343.845 1114.41 343.722C1114.43 343.6 1114.43 343.475 1114.4 343.354C1114.38 343.233 1114.33 343.119 1114.26 343.018Z" fill="#464A5F"/>
<path d="M1107.82 347.659L1105.54 344.28C1105.41 344.086 1105.2 343.953 1104.98 343.909C1104.75 343.866 1104.52 343.914 1104.32 344.044L1100.95 346.407C1100.77 346.546 1100.63 346.755 1100.59 346.991C1100.54 347.228 1100.59 347.473 1100.71 347.677L1102.8 351.019C1102.93 351.218 1103.12 351.358 1103.35 351.411C1103.57 351.463 1103.81 351.424 1104.01 351.301L1107.56 348.976C1107.66 348.908 1107.75 348.819 1107.82 348.716C1107.89 348.612 1107.93 348.496 1107.96 348.373C1107.98 348.25 1107.98 348.124 1107.96 348.001C1107.93 347.879 1107.88 347.762 1107.82 347.659Z" fill="#464A5F"/>
<path d="M1101.68 352.723L1098.85 348.525C1098.82 348.478 1098.78 348.437 1098.73 348.406C1098.69 348.375 1098.64 348.354 1098.58 348.343C1098.53 348.333 1098.48 348.333 1098.42 348.345C1098.37 348.357 1098.32 348.379 1098.27 348.412L1094.14 351.32C1094.05 351.383 1093.98 351.481 1093.96 351.592C1093.94 351.703 1093.96 351.818 1094.02 351.913L1096.61 356.073C1096.64 356.121 1096.68 356.162 1096.73 356.194C1096.77 356.226 1096.82 356.249 1096.88 356.26C1096.93 356.271 1096.98 356.272 1097.04 356.261C1097.09 356.25 1097.14 356.228 1097.19 356.196L1101.55 353.372C1101.6 353.342 1101.65 353.3 1101.69 353.249C1101.72 353.198 1101.75 353.14 1101.76 353.078C1101.77 353.016 1101.77 352.952 1101.76 352.891C1101.74 352.829 1101.71 352.772 1101.68 352.723Z" fill="#464A5F"/>
<path d="M1095.98 356.836L1093.15 352.638C1093.12 352.591 1093.08 352.551 1093.04 352.52C1092.99 352.489 1092.94 352.468 1092.89 352.457C1092.84 352.447 1092.78 352.447 1092.73 352.459C1092.68 352.471 1092.63 352.493 1092.58 352.525L1088.47 355.424C1088.38 355.489 1088.32 355.588 1088.3 355.7C1088.28 355.813 1088.3 355.93 1088.36 356.026L1090.95 360.177C1091.01 360.271 1091.1 360.336 1091.21 360.361C1091.31 360.385 1091.43 360.367 1091.52 360.309L1095.89 357.485C1095.94 357.452 1095.98 357.407 1096.01 357.355C1096.05 357.303 1096.07 357.244 1096.08 357.182C1096.09 357.12 1096.08 357.058 1096.06 356.998C1096.05 356.938 1096.02 356.883 1095.98 356.836Z" fill="#464A5F"/>
<path d="M1089.6 361.439L1086.78 357.231C1086.71 357.14 1086.62 357.078 1086.51 357.059C1086.4 357.039 1086.29 357.064 1086.2 357.128L1082.07 360.027C1081.98 360.092 1081.92 360.191 1081.9 360.303C1081.88 360.415 1081.9 360.532 1081.96 360.629L1084.55 364.78C1084.61 364.875 1084.7 364.943 1084.81 364.967C1084.91 364.992 1085.02 364.972 1085.12 364.912L1089.49 362.088C1089.54 362.057 1089.58 362.014 1089.62 361.963C1089.65 361.912 1089.68 361.853 1089.69 361.792C1089.7 361.73 1089.7 361.666 1089.68 361.605C1089.67 361.544 1089.64 361.487 1089.6 361.439Z" fill="#464A5F"/>
<path d="M1083.43 365.891L1080.6 361.693C1080.57 361.646 1080.53 361.605 1080.48 361.574C1080.44 361.543 1080.39 361.522 1080.33 361.511C1080.28 361.501 1080.23 361.501 1080.17 361.513C1080.12 361.525 1080.07 361.547 1080.02 361.58L1075.9 364.488C1075.85 364.519 1075.81 364.558 1075.78 364.605C1075.75 364.651 1075.73 364.704 1075.72 364.759C1075.71 364.814 1075.71 364.871 1075.72 364.926C1075.73 364.982 1075.75 365.034 1075.78 365.081L1078.37 369.241C1078.4 369.289 1078.44 369.33 1078.48 369.362C1078.53 369.394 1078.58 369.416 1078.63 369.427C1078.68 369.439 1078.74 369.439 1078.79 369.428C1078.84 369.417 1078.89 369.395 1078.94 369.364L1083.31 366.54C1083.36 366.508 1083.41 366.465 1083.44 366.414C1083.47 366.362 1083.5 366.304 1083.51 366.243C1083.52 366.181 1083.52 366.118 1083.5 366.058C1083.49 365.997 1083.46 365.94 1083.43 365.891Z" fill="#464A5F"/>
<path d="M1081.49 376.724L1078.66 372.517C1078.59 372.426 1078.5 372.364 1078.39 372.344C1078.28 372.325 1078.17 372.35 1078.08 372.413L1073.95 375.312C1073.85 375.377 1073.79 375.477 1073.77 375.589C1073.75 375.701 1073.77 375.818 1073.83 375.915L1076.42 380.066C1076.48 380.159 1076.57 380.225 1076.68 380.249C1076.78 380.274 1076.9 380.255 1076.99 380.197L1081.36 377.374C1081.41 377.345 1081.46 377.303 1081.5 377.253C1081.53 377.202 1081.56 377.143 1081.57 377.081C1081.58 377.018 1081.58 376.954 1081.57 376.892C1081.55 376.83 1081.52 376.773 1081.49 376.724Z" fill="#464A5F"/>
<path d="M1075.31 381.176L1072.48 376.978C1072.45 376.931 1072.41 376.891 1072.37 376.86C1072.32 376.829 1072.27 376.808 1072.22 376.797C1072.16 376.787 1072.11 376.787 1072.05 376.799C1072 376.811 1071.95 376.833 1071.9 376.866L1067.77 379.774C1067.68 379.837 1067.62 379.935 1067.59 380.046C1067.57 380.156 1067.59 380.272 1067.65 380.367L1070.24 384.518C1070.27 384.566 1070.31 384.608 1070.36 384.641C1070.4 384.674 1070.45 384.698 1070.51 384.71C1070.56 384.722 1070.61 384.723 1070.67 384.713C1070.72 384.702 1070.77 384.681 1070.82 384.65L1075.18 381.826C1075.24 381.797 1075.28 381.756 1075.32 381.705C1075.36 381.654 1075.38 381.595 1075.4 381.533C1075.41 381.471 1075.41 381.406 1075.39 381.344C1075.38 381.283 1075.35 381.225 1075.31 381.176Z" fill="#464A5F"/>
<path d="M1085 354.511L1082.33 350.548C1082.25 350.425 1082.12 350.342 1081.98 350.316C1081.83 350.289 1081.69 350.322 1081.57 350.407L1077.64 353.146C1077.52 353.232 1077.43 353.364 1077.41 353.514C1077.38 353.663 1077.41 353.818 1077.49 353.946L1079.92 357.862C1080 357.989 1080.13 358.078 1080.27 358.11C1080.42 358.142 1080.57 358.113 1080.69 358.031L1084.81 355.33C1084.87 355.291 1084.93 355.239 1084.98 355.176C1085.02 355.113 1085.06 355.04 1085.08 354.964C1085.09 354.887 1085.1 354.807 1085.08 354.729C1085.07 354.651 1085.04 354.577 1085 354.511Z" fill="#464A5F"/>
<path d="M1078.82 358.963L1076.16 355.01C1076.12 354.947 1076.06 354.894 1076 354.852C1075.94 354.811 1075.88 354.782 1075.8 354.768C1075.73 354.754 1075.66 354.755 1075.59 354.771C1075.52 354.786 1075.45 354.816 1075.39 354.859L1071.49 357.608C1071.37 357.692 1071.29 357.822 1071.26 357.97C1071.23 358.118 1071.26 358.272 1071.34 358.398L1073.77 362.314C1073.86 362.441 1073.98 362.531 1074.12 362.564C1074.27 362.597 1074.42 362.572 1074.54 362.493L1078.67 359.791C1078.73 359.748 1078.78 359.692 1078.83 359.626C1078.87 359.561 1078.9 359.488 1078.91 359.411C1078.93 359.334 1078.92 359.254 1078.91 359.178C1078.89 359.101 1078.86 359.028 1078.82 358.963Z" fill="#464A5F"/>
<path d="M1072.65 363.425L1069.94 359.462C1069.85 359.34 1069.73 359.256 1069.58 359.23C1069.44 359.204 1069.3 359.236 1069.18 359.321L1065.27 362.06C1065.15 362.146 1065.06 362.278 1065.03 362.427C1065.01 362.577 1065.03 362.732 1065.11 362.86L1067.55 366.775C1067.63 366.903 1067.76 366.992 1067.9 367.024C1068.05 367.055 1068.2 367.027 1068.32 366.945L1072.45 364.243C1072.51 364.206 1072.57 364.154 1072.62 364.091C1072.67 364.028 1072.7 363.956 1072.72 363.879C1072.74 363.802 1072.74 363.722 1072.73 363.644C1072.71 363.566 1072.69 363.491 1072.65 363.425Z" fill="#464A5F"/>
<path d="M1066.56 368.008L1063.73 363.801C1063.67 363.71 1063.57 363.648 1063.46 363.628C1063.36 363.609 1063.24 363.634 1063.15 363.697L1059.02 366.597C1058.93 366.663 1058.87 366.763 1058.85 366.875C1058.83 366.987 1058.85 367.103 1058.91 367.199L1061.5 371.35C1061.56 371.445 1061.65 371.512 1061.76 371.537C1061.87 371.562 1061.98 371.542 1062.07 371.482L1066.44 368.658C1066.49 368.627 1066.54 368.584 1066.57 368.533C1066.61 368.482 1066.63 368.423 1066.64 368.361C1066.66 368.3 1066.65 368.236 1066.64 368.175C1066.62 368.114 1066.6 368.057 1066.56 368.008Z" fill="#464A5F"/>
<path d="M1139.65 324.589L1137.24 320.956C1137.1 320.761 1136.9 320.628 1136.67 320.586C1136.44 320.544 1136.2 320.595 1136.01 320.73L1126.4 327.704C1126.22 327.844 1126.09 328.053 1126.05 328.287C1126 328.521 1126.05 328.763 1126.17 328.966L1128.48 332.674C1128.54 332.777 1128.63 332.865 1128.73 332.933C1128.83 333.002 1128.94 333.049 1129.06 333.073C1129.17 333.096 1129.29 333.096 1129.41 333.071C1129.52 333.046 1129.64 332.998 1129.73 332.928L1139.42 325.859C1139.61 325.718 1139.74 325.507 1139.78 325.271C1139.82 325.035 1139.77 324.791 1139.65 324.589Z" fill="#464A5F"/>
<path d="M1077.23 370.211L1074.23 365.797C1074.2 365.749 1074.16 365.709 1074.12 365.678C1074.07 365.647 1074.02 365.626 1073.97 365.616C1073.91 365.607 1073.86 365.608 1073.8 365.622C1073.75 365.635 1073.7 365.659 1073.66 365.693L1063.34 373.223C1063.26 373.288 1063.19 373.386 1063.17 373.496C1063.15 373.607 1063.18 373.722 1063.24 373.816L1066.06 378.353C1066.09 378.402 1066.13 378.444 1066.18 378.477C1066.22 378.51 1066.28 378.533 1066.33 378.544C1066.39 378.555 1066.44 378.555 1066.5 378.543C1066.55 378.532 1066.6 378.508 1066.65 378.475L1077.13 370.823C1077.22 370.755 1077.28 370.652 1077.3 370.538C1077.32 370.424 1077.3 370.306 1077.23 370.211Z" fill="#464A5F"/>
<path d="M1110.04 336.448L1107.33 332.26C1107.27 332.165 1107.17 332.1 1107.06 332.077C1106.96 332.054 1106.84 332.076 1106.75 332.138L1083.86 348.233C1083.82 348.263 1083.78 348.303 1083.75 348.349C1083.71 348.396 1083.69 348.448 1083.68 348.504C1083.67 348.559 1083.67 348.616 1083.68 348.671C1083.69 348.726 1083.71 348.779 1083.74 348.826L1086.56 353.344C1086.59 353.393 1086.63 353.435 1086.68 353.468C1086.72 353.501 1086.77 353.524 1086.83 353.535C1086.88 353.547 1086.94 353.546 1087 353.535C1087.05 353.523 1087.1 353.499 1087.15 353.466L1109.98 337.051C1110.06 336.979 1110.11 336.876 1110.13 336.763C1110.14 336.651 1110.11 336.538 1110.04 336.448Z" fill="#464A5F"/>
<path opacity="0.1" d="M1110.15 322.066L1097.97 303.627C1097.64 303.115 1097.12 302.762 1096.54 302.646C1095.95 302.529 1095.34 302.659 1094.85 303.006L1061.32 326.471C1061.07 326.645 1060.86 326.868 1060.7 327.128C1060.53 327.387 1060.42 327.678 1060.37 327.983C1060.31 328.288 1060.31 328.602 1060.37 328.906C1060.43 329.21 1060.55 329.499 1060.72 329.756L1073.12 348.722C1073.29 348.98 1073.5 349.201 1073.75 349.371C1074 349.542 1074.28 349.66 1074.58 349.718C1074.87 349.775 1075.17 349.772 1075.46 349.708C1075.75 349.644 1076.03 349.52 1076.28 349.343L1109.57 325.332C1109.81 325.158 1110.02 324.935 1110.18 324.676C1110.34 324.417 1110.46 324.128 1110.51 323.824C1110.56 323.521 1110.56 323.209 1110.5 322.908C1110.43 322.606 1110.32 322.32 1110.15 322.066Z" fill="black"/>
<path d="M1110.71 322.179L1098.53 303.74C1098.2 303.23 1097.68 302.879 1097.09 302.762C1096.51 302.646 1095.9 302.774 1095.41 303.119L1061.93 326.603C1061.68 326.776 1061.46 326.998 1061.3 327.257C1061.13 327.516 1061.02 327.806 1060.96 328.112C1060.9 328.417 1060.91 328.732 1060.97 329.037C1061.03 329.341 1061.14 329.631 1061.31 329.888L1073.68 348.835C1073.85 349.093 1074.06 349.313 1074.31 349.484C1074.56 349.655 1074.84 349.773 1075.14 349.831C1075.43 349.888 1075.73 349.885 1076.02 349.821C1076.31 349.757 1076.59 349.633 1076.84 349.456L1110.15 325.445C1110.39 325.269 1110.6 325.045 1110.76 324.786C1110.92 324.526 1111.02 324.237 1111.08 323.933C1111.13 323.63 1111.12 323.319 1111.06 323.018C1111 322.717 1110.88 322.432 1110.71 322.179Z" fill="#939498"/>
<path d="M1186.19 351.979L1160.36 343L1077.53 402.976L1103.17 411.682C1103.86 411.917 1104.59 411.982 1105.31 411.871C1106.03 411.76 1106.72 411.476 1107.31 411.042L1186.42 353.701C1186.58 353.607 1186.7 353.467 1186.78 353.299C1186.86 353.131 1186.88 352.943 1186.86 352.758C1186.83 352.574 1186.76 352.401 1186.64 352.263C1186.52 352.124 1186.36 352.025 1186.19 351.979Z" fill="#45C9C6"/>
<defs>
<filter id="filter0_i" x="0" y="0" width="1364" height="793" filterUnits="userSpaceOnUse" color-interpolation-filters="sRGB">
<feFlood flood-opacity="0" result="BackgroundImageFix"/>
<feBlend mode="normal" in="SourceGraphic" in2="BackgroundImageFix" result="shape"/>
<feColorMatrix in="SourceAlpha" type="matrix" values="0 0 0 0 0 0 0 0 0 0 0 0 0 0 0 0 0 0 127 0" result="hardAlpha"/>
<feOffset dy="4"/>
<feGaussianBlur stdDeviation="2"/>
<feComposite in2="hardAlpha" operator="arithmetic" k2="-1" k3="1"/>
<feColorMatrix type="matrix" values="0 0 0 0 0 0 0 0 0 0 0 0 0 0 0 0 0 0 0.25 0"/>
<feBlend mode="normal" in2="shape" result="effect1_innerShadow"/>
</filter>
</defs>
</svg>
