<svg width="37" height="38" viewBox="0 0 37 38" fill="none" xmlns="http://www.w3.org/2000/svg">
<path d="M37 3.78373L12.342 4.09973L12.2416 37.7232L36.8995 37.4072L37 3.78373Z" fill="white"/>
<path d="M12.743 37.2168L12.8405 4.59332L36.4985 4.29013L36.401 36.9136L12.743 37.2168Z" stroke="#6EA6A4" stroke-opacity="0.7"/>
<path d="M20.2082 27.3044L14.4149 27.3787L14.3913 35.2781L20.1846 35.2038L20.2082 27.3044Z" fill="#F48E41" fill-opacity="0.8"/>
<path d="M32.8168 27.2002L27.0236 27.2744L27 35.1738L32.7932 35.0996L32.8168 27.2002Z" fill="#F48E41" fill-opacity="0.7"/>
<path d="M35.5036 6.00001L15.1879 6.2543L15.1821 8.02457L35.4978 7.77028L35.5036 6.00001Z" fill="#F48E41" fill-opacity="0.7"/>
<path d="M35.6209 9.27784L15.3052 9.53214L15.2994 11.3024L35.6151 11.0481L35.6209 9.27784Z" fill="#F48E41" fill-opacity="0.7"/>
<path d="M24.6249 0H0V33.6673H24.6249V0Z" fill="white"/>
<path d="M0.5 33.1673V0.5H24.1249V33.1673H0.5Z" stroke="#F48E41" stroke-opacity="0.5"/>
<path d="M9.69297 27.2563C8.68201 27.2563 7.74938 27.0712 6.89505 26.701C6.05496 26.3165 5.36438 25.7755 4.82331 25.0778L6.74554 22.7711C7.55715 23.8675 8.48267 24.4157 9.5221 24.4157C10.9317 24.4157 11.6366 23.5898 11.6366 21.9381V14.8259H6.38245V12.0493H15.0752V21.7459C15.0752 23.5827 14.6196 24.9639 13.7083 25.8894C12.797 26.8007 11.4586 27.2563 9.69297 27.2563ZM29.4709 19.2256C30.3253 19.4962 30.9945 19.9518 31.4786 20.5926C31.9627 21.2191 32.2048 21.9951 32.2048 22.9206C32.2048 24.2306 31.6922 25.2415 30.667 25.9535C29.6561 26.6512 28.1752 27 26.2245 27H18.4929V12.0493H25.7973C27.6199 12.0493 29.0153 12.3981 29.9835 13.0958C30.966 13.7935 31.4573 14.7404 31.4573 15.9365C31.4573 16.6627 31.2793 17.3105 30.9233 17.8801C30.5816 18.4496 30.0975 18.8981 29.4709 19.2256ZM21.9315 14.655V18.1791H25.3702C26.2245 18.1791 26.8724 18.0296 27.3138 17.7306C27.7552 17.4315 27.9759 16.9901 27.9759 16.4064C27.9759 15.8226 27.7552 15.3883 27.3138 15.1035C26.8724 14.8045 26.2245 14.655 25.3702 14.655H21.9315ZM25.9682 24.3943C26.8795 24.3943 27.563 24.2448 28.0186 23.9458C28.4885 23.6468 28.7234 23.184 28.7234 22.5575C28.7234 21.3187 27.805 20.6993 25.9682 20.6993H21.9315V24.3943H25.9682Z" fill="#6EA6A4"/>
<path d="M22.3214 2.00001L2.00574 2.2543L1.99996 4.02457L22.3157 3.77028L22.3214 2.00001Z" fill="#6EA6A4" fill-opacity="0.8"/>
<path d="M22.4387 5.27784L2.12305 5.53214L2.11727 7.3024L22.433 7.0481L22.4387 5.27784Z" fill="#6EA6A4" fill-opacity="0.8"/>
<rect x="0.5" y="0.5" width="23.6249" height="32.6673" stroke="#F48E41" stroke-opacity="0.5"/>
</svg>
